<mxfile host="app.diagrams.net" agent="Mozilla/5.0 (Windows NT 10.0; Win64; x64; rv:142.0) Gecko/20100101 Firefox/142.0" version="28.1.1" pages="7">
  <diagram name="Start" id="BCdZJcgpSqmYK6YZ52Y_">
    <mxGraphModel dx="1428" dy="803" grid="1" gridSize="10" guides="1" tooltips="1" connect="1" arrows="1" fold="1" page="0" pageScale="1" pageWidth="827" pageHeight="1169" math="0" shadow="0">
      <root>
        <mxCell id="0" />
        <mxCell id="1" parent="0" />
        <mxCell id="Ngw4xZ1iBnMASFYmVozH-3" style="edgeStyle=none;curved=1;rounded=0;orthogonalLoop=1;jettySize=auto;html=1;exitX=0.5;exitY=1;exitDx=0;exitDy=0;entryX=0.5;entryY=0;entryDx=0;entryDy=0;fontSize=12;startSize=8;endSize=8;" parent="1" source="Ngw4xZ1iBnMASFYmVozH-1" target="Ngw4xZ1iBnMASFYmVozH-2" edge="1">
          <mxGeometry relative="1" as="geometry" />
        </mxCell>
        <mxCell id="Ngw4xZ1iBnMASFYmVozH-1" value="Echoplay wird gestartet" style="rounded=1;whiteSpace=wrap;html=1;" parent="1" vertex="1">
          <mxGeometry x="320" y="80" width="130" height="40" as="geometry" />
        </mxCell>
        <mxCell id="Ngw4xZ1iBnMASFYmVozH-5" style="edgeStyle=none;curved=1;rounded=0;orthogonalLoop=1;jettySize=auto;html=1;exitX=0.5;exitY=1;exitDx=0;exitDy=0;entryX=0.5;entryY=0;entryDx=0;entryDy=0;fontSize=12;startSize=8;endSize=8;" parent="1" source="Ngw4xZ1iBnMASFYmVozH-2" target="Ngw4xZ1iBnMASFYmVozH-4" edge="1">
          <mxGeometry relative="1" as="geometry" />
        </mxCell>
        <mxCell id="Ngw4xZ1iBnMASFYmVozH-2" value="Startanimation" style="rounded=1;whiteSpace=wrap;html=1;" parent="1" vertex="1">
          <mxGeometry x="320" y="160" width="130" height="40" as="geometry" />
        </mxCell>
        <mxCell id="Ngw4xZ1iBnMASFYmVozH-7" style="edgeStyle=none;curved=1;rounded=0;orthogonalLoop=1;jettySize=auto;html=1;exitX=0.5;exitY=1;exitDx=0;exitDy=0;entryX=0.5;entryY=0;entryDx=0;entryDy=0;fontSize=12;startSize=8;endSize=8;" parent="1" source="Ngw4xZ1iBnMASFYmVozH-4" target="Ngw4xZ1iBnMASFYmVozH-6" edge="1">
          <mxGeometry relative="1" as="geometry" />
        </mxCell>
        <mxCell id="Ngw4xZ1iBnMASFYmVozH-4" value="Letzt verwendetes Programm" style="rounded=1;whiteSpace=wrap;html=1;" parent="1" vertex="1">
          <mxGeometry x="320" y="240" width="130" height="40" as="geometry" />
        </mxCell>
        <mxCell id="Ngw4xZ1iBnMASFYmVozH-14" style="edgeStyle=none;curved=1;rounded=0;orthogonalLoop=1;jettySize=auto;html=1;exitX=0;exitY=0.5;exitDx=0;exitDy=0;entryX=1;entryY=0.5;entryDx=0;entryDy=0;fontSize=12;startSize=8;endSize=8;" parent="1" source="Ngw4xZ1iBnMASFYmVozH-6" target="Ngw4xZ1iBnMASFYmVozH-13" edge="1">
          <mxGeometry relative="1" as="geometry" />
        </mxCell>
        <mxCell id="Ngw4xZ1iBnMASFYmVozH-6" value="Gelber Knopf gedr체ckt?" style="rhombus;whiteSpace=wrap;html=1;" parent="1" vertex="1">
          <mxGeometry x="330" y="330" width="110" height="100" as="geometry" />
        </mxCell>
        <mxCell id="Ngw4xZ1iBnMASFYmVozH-9" value="&lt;div&gt;Ja&lt;/div&gt;" style="text;html=1;align=center;verticalAlign=middle;resizable=0;points=[];autosize=1;strokeColor=none;fillColor=none;fontSize=16;" parent="1" vertex="1">
          <mxGeometry x="290" y="341" width="40" height="30" as="geometry" />
        </mxCell>
        <mxCell id="Ngw4xZ1iBnMASFYmVozH-10" value="Nein" style="text;html=1;align=center;verticalAlign=middle;resizable=0;points=[];autosize=1;strokeColor=none;fillColor=none;fontSize=16;" parent="1" vertex="1">
          <mxGeometry x="450" y="341" width="60" height="30" as="geometry" />
        </mxCell>
        <mxCell id="PngjYbP6l01CfZ-gIK1M-1" style="edgeStyle=none;curved=1;rounded=0;orthogonalLoop=1;jettySize=auto;html=1;exitX=0;exitY=0.5;exitDx=0;exitDy=0;entryX=0.5;entryY=0;entryDx=0;entryDy=0;fontSize=12;startSize=8;endSize=8;" edge="1" parent="1" source="Ngw4xZ1iBnMASFYmVozH-13" target="Ngw4xZ1iBnMASFYmVozH-6">
          <mxGeometry relative="1" as="geometry">
            <Array as="points">
              <mxPoint x="80" y="260" />
            </Array>
          </mxGeometry>
        </mxCell>
        <mxCell id="Ngw4xZ1iBnMASFYmVozH-13" value="Programm 채ndern" style="rounded=1;whiteSpace=wrap;html=1;" parent="1" vertex="1">
          <mxGeometry x="150" y="360" width="130" height="40" as="geometry" />
        </mxCell>
        <mxCell id="PngjYbP6l01CfZ-gIK1M-2" style="edgeStyle=none;curved=1;rounded=0;orthogonalLoop=1;jettySize=auto;html=1;exitX=1;exitY=0.5;exitDx=0;exitDy=0;entryX=0.5;entryY=0;entryDx=0;entryDy=0;fontSize=12;startSize=8;endSize=8;" edge="1" parent="1" source="Ngw4xZ1iBnMASFYmVozH-6" target="Ngw4xZ1iBnMASFYmVozH-6">
          <mxGeometry relative="1" as="geometry">
            <Array as="points">
              <mxPoint x="690" y="340" />
            </Array>
          </mxGeometry>
        </mxCell>
      </root>
    </mxGraphModel>
  </diagram>
  <diagram id="MvB76alED9_XXCldiHOf" name="Snake">
    <mxGraphModel dx="4530" dy="2006" grid="0" gridSize="10" guides="1" tooltips="1" connect="1" arrows="1" fold="1" page="0" pageScale="1" pageWidth="827" pageHeight="1169" math="0" shadow="0">
      <root>
        <mxCell id="0" />
        <mxCell id="1" parent="0" />
        <mxCell id="aDZa0IUrz87PPYCsn7vV-1" value="Programm ausgew채hlt" style="rounded=1;whiteSpace=wrap;html=1;" parent="1" vertex="1">
          <mxGeometry x="-106" y="-322" width="120" height="40" as="geometry" />
        </mxCell>
        <mxCell id="-bqdouV9K8Qf3cvcS5fW-112" value="" style="edgeStyle=none;curved=1;rounded=0;orthogonalLoop=1;jettySize=auto;html=1;fontSize=12;startSize=8;endSize=8;" parent="1" source="-bqdouV9K8Qf3cvcS5fW-6" target="-bqdouV9K8Qf3cvcS5fW-111" edge="1">
          <mxGeometry relative="1" as="geometry" />
        </mxCell>
        <mxCell id="5A0B46P36DNqOvIny8CB-8" value="Ja" style="edgeLabel;html=1;align=center;verticalAlign=middle;resizable=0;points=[];fontSize=12;" vertex="1" connectable="0" parent="-bqdouV9K8Qf3cvcS5fW-112">
          <mxGeometry x="-0.1142" y="1" relative="1" as="geometry">
            <mxPoint as="offset" />
          </mxGeometry>
        </mxCell>
        <mxCell id="5A0B46P36DNqOvIny8CB-5" value="" style="edgeStyle=none;curved=1;rounded=0;orthogonalLoop=1;jettySize=auto;html=1;fontSize=12;startSize=8;endSize=8;entryX=0.5;entryY=0;entryDx=0;entryDy=0;" edge="1" parent="1" source="-bqdouV9K8Qf3cvcS5fW-6" target="-bqdouV9K8Qf3cvcS5fW-6">
          <mxGeometry relative="1" as="geometry">
            <mxPoint x="124" y="-110" as="targetPoint" />
            <Array as="points">
              <mxPoint x="243" y="-218" />
            </Array>
          </mxGeometry>
        </mxCell>
        <mxCell id="5A0B46P36DNqOvIny8CB-11" value="Nein" style="edgeLabel;html=1;align=center;verticalAlign=middle;resizable=0;points=[];fontSize=12;" vertex="1" connectable="0" parent="5A0B46P36DNqOvIny8CB-5">
          <mxGeometry x="-0.1009" y="-2" relative="1" as="geometry">
            <mxPoint x="-144" y="9" as="offset" />
          </mxGeometry>
        </mxCell>
        <mxCell id="-bqdouV9K8Qf3cvcS5fW-6" value="Linker- oder rechter Knopf gedr체ckt?" style="rhombus;whiteSpace=wrap;html=1;" parent="1" vertex="1">
          <mxGeometry x="-101" y="-205" width="110" height="110" as="geometry" />
        </mxCell>
        <mxCell id="-bqdouV9K8Qf3cvcS5fW-83" style="edgeStyle=none;curved=1;rounded=0;orthogonalLoop=1;jettySize=auto;html=1;exitX=0.5;exitY=0;exitDx=0;exitDy=0;entryX=0.5;entryY=0;entryDx=0;entryDy=0;fontSize=12;startSize=8;endSize=8;" parent="1" source="-bqdouV9K8Qf3cvcS5fW-76" edge="1">
          <mxGeometry relative="1" as="geometry">
            <Array as="points">
              <mxPoint x="-140" y="296" />
            </Array>
            <mxPoint x="-29.999999999999545" y="376" as="targetPoint" />
          </mxGeometry>
        </mxCell>
        <mxCell id="-bqdouV9K8Qf3cvcS5fW-98" style="edgeStyle=none;curved=1;rounded=0;orthogonalLoop=1;jettySize=auto;html=1;exitX=0.5;exitY=0;exitDx=0;exitDy=0;entryX=0.5;entryY=0;entryDx=0;entryDy=0;fontSize=12;startSize=8;endSize=8;" parent="1" source="-bqdouV9K8Qf3cvcS5fW-96" edge="1">
          <mxGeometry relative="1" as="geometry">
            <Array as="points">
              <mxPoint x="100" y="266" />
            </Array>
            <mxPoint x="-29.999999999999545" y="376" as="targetPoint" />
          </mxGeometry>
        </mxCell>
        <mxCell id="-bqdouV9K8Qf3cvcS5fW-104" style="edgeStyle=none;curved=1;rounded=0;orthogonalLoop=1;jettySize=auto;html=1;exitX=0;exitY=0.5;exitDx=0;exitDy=0;entryX=0.5;entryY=0;entryDx=0;entryDy=0;fontSize=12;startSize=8;endSize=8;" parent="1" source="-bqdouV9K8Qf3cvcS5fW-100" edge="1">
          <mxGeometry relative="1" as="geometry">
            <Array as="points">
              <mxPoint x="-620" y="486" />
              <mxPoint x="-280" y="116" />
            </Array>
            <mxPoint x="-29.999999999999545" y="376" as="targetPoint" />
          </mxGeometry>
        </mxCell>
        <mxCell id="5A0B46P36DNqOvIny8CB-21" value="" style="edgeStyle=none;curved=1;rounded=0;orthogonalLoop=1;jettySize=auto;html=1;fontSize=12;startSize=8;endSize=8;entryX=0.5;entryY=0;entryDx=0;entryDy=0;" edge="1" parent="1" source="-bqdouV9K8Qf3cvcS5fW-111" target="5A0B46P36DNqOvIny8CB-20">
          <mxGeometry relative="1" as="geometry">
            <mxPoint x="-46" y="61.00000000000023" as="targetPoint" />
          </mxGeometry>
        </mxCell>
        <mxCell id="-bqdouV9K8Qf3cvcS5fW-111" value="Schweirigkeitsauswahl anzeigen" style="whiteSpace=wrap;html=1;" parent="1" vertex="1">
          <mxGeometry x="-106" y="-36" width="120" height="60" as="geometry" />
        </mxCell>
        <mxCell id="5A0B46P36DNqOvIny8CB-1" value="" style="edgeStyle=none;curved=1;rounded=0;orthogonalLoop=1;jettySize=auto;html=1;exitX=0.5;exitY=1;exitDx=0;exitDy=0;entryX=0.5;entryY=0;entryDx=0;entryDy=0;fontSize=12;startSize=8;endSize=8;" edge="1" parent="1" source="aDZa0IUrz87PPYCsn7vV-1" target="-bqdouV9K8Qf3cvcS5fW-4">
          <mxGeometry relative="1" as="geometry">
            <mxPoint x="220" y="-170" as="targetPoint" />
            <mxPoint x="-46" y="-282" as="sourcePoint" />
          </mxGeometry>
        </mxCell>
        <mxCell id="5A0B46P36DNqOvIny8CB-2" style="edgeStyle=none;curved=1;rounded=0;orthogonalLoop=1;jettySize=auto;html=1;exitX=0.5;exitY=1;exitDx=0;exitDy=0;entryX=0.5;entryY=0;entryDx=0;entryDy=0;fontSize=12;startSize=8;endSize=8;" edge="1" parent="1" source="-bqdouV9K8Qf3cvcS5fW-4" target="-bqdouV9K8Qf3cvcS5fW-6">
          <mxGeometry relative="1" as="geometry" />
        </mxCell>
        <mxCell id="-bqdouV9K8Qf3cvcS5fW-4" value="Start Screen" style="whiteSpace=wrap;html=1;" parent="1" vertex="1">
          <mxGeometry x="-106" y="-261" width="120" height="40" as="geometry" />
        </mxCell>
        <mxCell id="5A0B46P36DNqOvIny8CB-15" value="" style="edgeStyle=none;curved=1;rounded=0;orthogonalLoop=1;jettySize=auto;html=1;fontSize=12;startSize=8;endSize=8;" edge="1" parent="1" source="5A0B46P36DNqOvIny8CB-12" target="5A0B46P36DNqOvIny8CB-14">
          <mxGeometry relative="1" as="geometry" />
        </mxCell>
        <mxCell id="5A0B46P36DNqOvIny8CB-16" value="Nein" style="edgeLabel;html=1;align=center;verticalAlign=middle;resizable=0;points=[];fontSize=12;" vertex="1" connectable="0" parent="5A0B46P36DNqOvIny8CB-15">
          <mxGeometry x="-0.1337" y="1" relative="1" as="geometry">
            <mxPoint as="offset" />
          </mxGeometry>
        </mxCell>
        <mxCell id="5A0B46P36DNqOvIny8CB-28" value="" style="edgeStyle=none;curved=1;rounded=0;orthogonalLoop=1;jettySize=auto;html=1;fontSize=12;startSize=8;endSize=8;" edge="1" parent="1" source="5A0B46P36DNqOvIny8CB-12" target="5A0B46P36DNqOvIny8CB-27">
          <mxGeometry relative="1" as="geometry" />
        </mxCell>
        <mxCell id="5A0B46P36DNqOvIny8CB-31" value="Ja" style="edgeLabel;html=1;align=center;verticalAlign=middle;resizable=0;points=[];fontSize=12;" vertex="1" connectable="0" parent="5A0B46P36DNqOvIny8CB-28">
          <mxGeometry x="-0.1551" y="-2" relative="1" as="geometry">
            <mxPoint as="offset" />
          </mxGeometry>
        </mxCell>
        <mxCell id="5A0B46P36DNqOvIny8CB-12" value="Linker Knopf gedr체ckt?" style="rhombus;whiteSpace=wrap;html=1;" vertex="1" parent="1">
          <mxGeometry x="111" y="110.5" width="99" height="88" as="geometry" />
        </mxCell>
        <mxCell id="5A0B46P36DNqOvIny8CB-39" value="" style="edgeStyle=none;curved=1;rounded=0;orthogonalLoop=1;jettySize=auto;html=1;fontSize=12;startSize=8;endSize=8;" edge="1" parent="1" source="5A0B46P36DNqOvIny8CB-14" target="5A0B46P36DNqOvIny8CB-38">
          <mxGeometry relative="1" as="geometry" />
        </mxCell>
        <mxCell id="5A0B46P36DNqOvIny8CB-41" value="Ja" style="edgeLabel;html=1;align=center;verticalAlign=middle;resizable=0;points=[];fontSize=12;" vertex="1" connectable="0" parent="5A0B46P36DNqOvIny8CB-39">
          <mxGeometry x="-0.029" relative="1" as="geometry">
            <mxPoint as="offset" />
          </mxGeometry>
        </mxCell>
        <mxCell id="5A0B46P36DNqOvIny8CB-45" style="edgeStyle=none;curved=1;rounded=0;orthogonalLoop=1;jettySize=auto;html=1;exitX=0.5;exitY=1;exitDx=0;exitDy=0;entryX=0.5;entryY=0;entryDx=0;entryDy=0;fontSize=12;startSize=8;endSize=8;" edge="1" parent="1" source="5A0B46P36DNqOvIny8CB-14" target="5A0B46P36DNqOvIny8CB-20">
          <mxGeometry relative="1" as="geometry">
            <Array as="points">
              <mxPoint x="984" y="680" />
              <mxPoint x="433" y="-208" />
            </Array>
          </mxGeometry>
        </mxCell>
        <mxCell id="5A0B46P36DNqOvIny8CB-46" value="Nein" style="edgeLabel;html=1;align=center;verticalAlign=middle;resizable=0;points=[];fontSize=12;" vertex="1" connectable="0" parent="5A0B46P36DNqOvIny8CB-45">
          <mxGeometry x="-0.9361" y="-3" relative="1" as="geometry">
            <mxPoint as="offset" />
          </mxGeometry>
        </mxCell>
        <mxCell id="5A0B46P36DNqOvIny8CB-14" value="Rechter Knopf gedr체ckt?" style="rhombus;whiteSpace=wrap;html=1;" vertex="1" parent="1">
          <mxGeometry x="111" y="287" width="99" height="88" as="geometry" />
        </mxCell>
        <mxCell id="5A0B46P36DNqOvIny8CB-23" value="" style="edgeStyle=none;curved=1;rounded=0;orthogonalLoop=1;jettySize=auto;html=1;fontSize=12;startSize=8;endSize=8;" edge="1" parent="1" source="5A0B46P36DNqOvIny8CB-20" target="5A0B46P36DNqOvIny8CB-12">
          <mxGeometry relative="1" as="geometry" />
        </mxCell>
        <mxCell id="5A0B46P36DNqOvIny8CB-24" value="Nein" style="edgeLabel;html=1;align=center;verticalAlign=middle;resizable=0;points=[];fontSize=12;" vertex="1" connectable="0" parent="5A0B46P36DNqOvIny8CB-23">
          <mxGeometry x="-0.3366" y="-2" relative="1" as="geometry">
            <mxPoint as="offset" />
          </mxGeometry>
        </mxCell>
        <mxCell id="5A0B46P36DNqOvIny8CB-26" value="" style="edgeStyle=none;curved=1;rounded=0;orthogonalLoop=1;jettySize=auto;html=1;fontSize=12;startSize=8;endSize=8;" edge="1" parent="1" source="5A0B46P36DNqOvIny8CB-20" target="5A0B46P36DNqOvIny8CB-25">
          <mxGeometry relative="1" as="geometry" />
        </mxCell>
        <mxCell id="5A0B46P36DNqOvIny8CB-20" value="Linker und Rechter Knopf gedr체ckt" style="rhombus;whiteSpace=wrap;html=1;" vertex="1" parent="1">
          <mxGeometry x="-96.5" y="101" width="101" height="107" as="geometry" />
        </mxCell>
        <mxCell id="5A0B46P36DNqOvIny8CB-52" value="" style="edgeStyle=none;curved=1;rounded=0;orthogonalLoop=1;jettySize=auto;html=1;fontSize=12;startSize=8;endSize=8;" edge="1" parent="1" source="5A0B46P36DNqOvIny8CB-25" target="5A0B46P36DNqOvIny8CB-51">
          <mxGeometry relative="1" as="geometry" />
        </mxCell>
        <mxCell id="5A0B46P36DNqOvIny8CB-25" value="Spiel Variabeln setzen" style="whiteSpace=wrap;html=1;" vertex="1" parent="1">
          <mxGeometry x="-106" y="301" width="120" height="60" as="geometry" />
        </mxCell>
        <mxCell id="5A0B46P36DNqOvIny8CB-30" value="" style="edgeStyle=none;curved=1;rounded=0;orthogonalLoop=1;jettySize=auto;html=1;fontSize=12;startSize=8;endSize=8;" edge="1" parent="1" source="5A0B46P36DNqOvIny8CB-27" target="5A0B46P36DNqOvIny8CB-29">
          <mxGeometry relative="1" as="geometry" />
        </mxCell>
        <mxCell id="5A0B46P36DNqOvIny8CB-32" value="Ja" style="edgeLabel;html=1;align=center;verticalAlign=middle;resizable=0;points=[];fontSize=12;" vertex="1" connectable="0" parent="5A0B46P36DNqOvIny8CB-30">
          <mxGeometry x="-0.1229" y="1" relative="1" as="geometry">
            <mxPoint as="offset" />
          </mxGeometry>
        </mxCell>
        <mxCell id="5A0B46P36DNqOvIny8CB-34" style="edgeStyle=none;curved=1;rounded=0;orthogonalLoop=1;jettySize=auto;html=1;exitX=0.5;exitY=0;exitDx=0;exitDy=0;entryX=0.5;entryY=0;entryDx=0;entryDy=0;fontSize=12;startSize=8;endSize=8;" edge="1" parent="1" source="5A0B46P36DNqOvIny8CB-27" target="5A0B46P36DNqOvIny8CB-20">
          <mxGeometry relative="1" as="geometry">
            <Array as="points">
              <mxPoint x="197" y="-22" />
            </Array>
          </mxGeometry>
        </mxCell>
        <mxCell id="5A0B46P36DNqOvIny8CB-35" value="Nein" style="edgeLabel;html=1;align=center;verticalAlign=middle;resizable=0;points=[];fontSize=12;" vertex="1" connectable="0" parent="5A0B46P36DNqOvIny8CB-34">
          <mxGeometry x="-0.3735" y="36" relative="1" as="geometry">
            <mxPoint as="offset" />
          </mxGeometry>
        </mxCell>
        <mxCell id="5A0B46P36DNqOvIny8CB-27" value="Schwierigkeit &amp;lt;= 1" style="rhombus;whiteSpace=wrap;html=1;" vertex="1" parent="1">
          <mxGeometry x="330" y="110.5" width="112" height="88" as="geometry" />
        </mxCell>
        <mxCell id="5A0B46P36DNqOvIny8CB-33" style="edgeStyle=none;curved=1;rounded=0;orthogonalLoop=1;jettySize=auto;html=1;exitX=0.5;exitY=0;exitDx=0;exitDy=0;entryX=0.5;entryY=0;entryDx=0;entryDy=0;fontSize=12;startSize=8;endSize=8;" edge="1" parent="1" source="5A0B46P36DNqOvIny8CB-29" target="5A0B46P36DNqOvIny8CB-20">
          <mxGeometry relative="1" as="geometry">
            <Array as="points">
              <mxPoint x="300" y="-117" />
            </Array>
          </mxGeometry>
        </mxCell>
        <mxCell id="5A0B46P36DNqOvIny8CB-29" value="Schwierigkeit - 1" style="whiteSpace=wrap;html=1;" vertex="1" parent="1">
          <mxGeometry x="558" y="124.5" width="120" height="60" as="geometry" />
        </mxCell>
        <mxCell id="5A0B46P36DNqOvIny8CB-43" value="" style="edgeStyle=none;curved=1;rounded=0;orthogonalLoop=1;jettySize=auto;html=1;fontSize=12;startSize=8;endSize=8;" edge="1" parent="1" source="5A0B46P36DNqOvIny8CB-38" target="5A0B46P36DNqOvIny8CB-42">
          <mxGeometry relative="1" as="geometry" />
        </mxCell>
        <mxCell id="5A0B46P36DNqOvIny8CB-38" value="Schwierigkeit &amp;gt;= 3" style="rhombus;whiteSpace=wrap;html=1;" vertex="1" parent="1">
          <mxGeometry x="339.5" y="291" width="112.5" height="80" as="geometry" />
        </mxCell>
        <mxCell id="5A0B46P36DNqOvIny8CB-44" style="edgeStyle=none;curved=1;rounded=0;orthogonalLoop=1;jettySize=auto;html=1;exitX=1;exitY=0.5;exitDx=0;exitDy=0;entryX=0.5;entryY=0;entryDx=0;entryDy=0;fontSize=12;startSize=8;endSize=8;" edge="1" parent="1" source="5A0B46P36DNqOvIny8CB-42" target="5A0B46P36DNqOvIny8CB-20">
          <mxGeometry relative="1" as="geometry">
            <Array as="points">
              <mxPoint x="729" y="109" />
              <mxPoint x="437" y="-195" />
            </Array>
          </mxGeometry>
        </mxCell>
        <mxCell id="5A0B46P36DNqOvIny8CB-42" value="Schwierigkeit + 1" style="whiteSpace=wrap;html=1;" vertex="1" parent="1">
          <mxGeometry x="568.25" y="301" width="120" height="60" as="geometry" />
        </mxCell>
        <mxCell id="5A0B46P36DNqOvIny8CB-54" value="" style="edgeStyle=none;curved=1;rounded=0;orthogonalLoop=1;jettySize=auto;html=1;fontSize=12;startSize=8;endSize=8;" edge="1" parent="1" source="5A0B46P36DNqOvIny8CB-51" target="5A0B46P36DNqOvIny8CB-53">
          <mxGeometry relative="1" as="geometry" />
        </mxCell>
        <mxCell id="5A0B46P36DNqOvIny8CB-51" value="Anfangs status vom Bild f체r Snake malen" style="shape=process;whiteSpace=wrap;html=1;backgroundOutline=1;" vertex="1" parent="1">
          <mxGeometry x="-106" y="481" width="120" height="60" as="geometry" />
        </mxCell>
        <mxCell id="5A0B46P36DNqOvIny8CB-95" value="" style="edgeStyle=none;curved=1;rounded=0;orthogonalLoop=1;jettySize=auto;html=1;fontSize=12;startSize=8;endSize=8;" edge="1" parent="1" source="5A0B46P36DNqOvIny8CB-53" target="5A0B46P36DNqOvIny8CB-94">
          <mxGeometry relative="1" as="geometry" />
        </mxCell>
        <mxCell id="5A0B46P36DNqOvIny8CB-53" value="Appfel auf dem Bildschirm platzieren" style="shape=process;whiteSpace=wrap;html=1;backgroundOutline=1;" vertex="1" parent="1">
          <mxGeometry x="-106" y="661" width="120" height="60" as="geometry" />
        </mxCell>
        <mxCell id="5A0B46P36DNqOvIny8CB-61" value="" style="edgeStyle=none;curved=1;rounded=0;orthogonalLoop=1;jettySize=auto;html=1;fontSize=12;startSize=8;endSize=8;" edge="1" parent="1" source="5A0B46P36DNqOvIny8CB-55" target="5A0B46P36DNqOvIny8CB-60">
          <mxGeometry relative="1" as="geometry" />
        </mxCell>
        <mxCell id="5A0B46P36DNqOvIny8CB-62" value="Ja" style="edgeLabel;html=1;align=center;verticalAlign=middle;resizable=0;points=[];fontSize=12;" vertex="1" connectable="0" parent="5A0B46P36DNqOvIny8CB-61">
          <mxGeometry x="0.0241" relative="1" as="geometry">
            <mxPoint as="offset" />
          </mxGeometry>
        </mxCell>
        <mxCell id="5A0B46P36DNqOvIny8CB-73" value="" style="edgeStyle=none;curved=1;rounded=0;orthogonalLoop=1;jettySize=auto;html=1;fontSize=12;startSize=8;endSize=8;" edge="1" parent="1" source="5A0B46P36DNqOvIny8CB-55" target="5A0B46P36DNqOvIny8CB-72">
          <mxGeometry relative="1" as="geometry" />
        </mxCell>
        <mxCell id="5A0B46P36DNqOvIny8CB-101" value="Nein" style="edgeLabel;html=1;align=center;verticalAlign=middle;resizable=0;points=[];fontSize=12;" vertex="1" connectable="0" parent="5A0B46P36DNqOvIny8CB-73">
          <mxGeometry x="-0.1917" y="4" relative="1" as="geometry">
            <mxPoint as="offset" />
          </mxGeometry>
        </mxCell>
        <mxCell id="5A0B46P36DNqOvIny8CB-55" value="gameOver = true" style="rhombus;whiteSpace=wrap;html=1;" vertex="1" parent="1">
          <mxGeometry x="-104" y="972" width="113" height="103" as="geometry" />
        </mxCell>
        <mxCell id="5A0B46P36DNqOvIny8CB-64" value="" style="edgeStyle=none;curved=1;rounded=0;orthogonalLoop=1;jettySize=auto;html=1;fontSize=12;startSize=8;endSize=8;" edge="1" parent="1" source="5A0B46P36DNqOvIny8CB-60" target="5A0B46P36DNqOvIny8CB-63">
          <mxGeometry relative="1" as="geometry" />
        </mxCell>
        <mxCell id="5A0B46P36DNqOvIny8CB-60" value="Game Over Screen malen" style="shape=process;whiteSpace=wrap;html=1;backgroundOutline=1;" vertex="1" parent="1">
          <mxGeometry x="-340.5" y="993.5" width="120" height="60" as="geometry" />
        </mxCell>
        <mxCell id="5A0B46P36DNqOvIny8CB-66" value="" style="edgeStyle=none;curved=1;rounded=0;orthogonalLoop=1;jettySize=auto;html=1;fontSize=12;startSize=8;endSize=8;" edge="1" parent="1" source="5A0B46P36DNqOvIny8CB-63" target="5A0B46P36DNqOvIny8CB-65">
          <mxGeometry relative="1" as="geometry" />
        </mxCell>
        <mxCell id="5A0B46P36DNqOvIny8CB-63" value="Neustart Screen zeigen" style="shape=process;whiteSpace=wrap;html=1;backgroundOutline=1;" vertex="1" parent="1">
          <mxGeometry x="-580.5" y="993.5" width="120" height="60" as="geometry" />
        </mxCell>
        <mxCell id="5A0B46P36DNqOvIny8CB-70" style="edgeStyle=none;curved=1;rounded=0;orthogonalLoop=1;jettySize=auto;html=1;exitX=0.5;exitY=0;exitDx=0;exitDy=0;entryX=0.5;entryY=0;entryDx=0;entryDy=0;fontSize=12;startSize=8;endSize=8;" edge="1" parent="1" source="5A0B46P36DNqOvIny8CB-65" target="-bqdouV9K8Qf3cvcS5fW-4">
          <mxGeometry relative="1" as="geometry">
            <Array as="points">
              <mxPoint x="-478" y="-191" />
            </Array>
          </mxGeometry>
        </mxCell>
        <mxCell id="5A0B46P36DNqOvIny8CB-71" value="Ja" style="edgeLabel;html=1;align=center;verticalAlign=middle;resizable=0;points=[];fontSize=12;" vertex="1" connectable="0" parent="5A0B46P36DNqOvIny8CB-70">
          <mxGeometry x="-0.8956" y="-4" relative="1" as="geometry">
            <mxPoint x="-1" as="offset" />
          </mxGeometry>
        </mxCell>
        <mxCell id="5A0B46P36DNqOvIny8CB-65" value="Linker- oder rechter Knopf gedr체ckt?" style="rhombus;whiteSpace=wrap;html=1;" vertex="1" parent="1">
          <mxGeometry x="-838" y="970.75" width="130" height="105.5" as="geometry" />
        </mxCell>
        <mxCell id="5A0B46P36DNqOvIny8CB-68" style="edgeStyle=none;curved=1;rounded=0;orthogonalLoop=1;jettySize=auto;html=1;exitX=0.5;exitY=1;exitDx=0;exitDy=0;entryX=1;entryY=0.5;entryDx=0;entryDy=0;fontSize=12;startSize=8;endSize=8;" edge="1" parent="1" source="5A0B46P36DNqOvIny8CB-65" target="5A0B46P36DNqOvIny8CB-65">
          <mxGeometry relative="1" as="geometry">
            <Array as="points">
              <mxPoint x="-670" y="1158" />
            </Array>
          </mxGeometry>
        </mxCell>
        <mxCell id="5A0B46P36DNqOvIny8CB-69" value="Nein" style="edgeLabel;html=1;align=center;verticalAlign=middle;resizable=0;points=[];fontSize=12;" vertex="1" connectable="0" parent="5A0B46P36DNqOvIny8CB-68">
          <mxGeometry x="-0.557" y="9" relative="1" as="geometry">
            <mxPoint as="offset" />
          </mxGeometry>
        </mxCell>
        <mxCell id="5A0B46P36DNqOvIny8CB-75" value="" style="edgeStyle=none;curved=1;rounded=0;orthogonalLoop=1;jettySize=auto;html=1;fontSize=12;startSize=8;endSize=8;" edge="1" parent="1" source="5A0B46P36DNqOvIny8CB-72" target="5A0B46P36DNqOvIny8CB-74">
          <mxGeometry relative="1" as="geometry" />
        </mxCell>
        <mxCell id="5A0B46P36DNqOvIny8CB-76" value="Ja" style="edgeLabel;html=1;align=center;verticalAlign=middle;resizable=0;points=[];fontSize=12;" vertex="1" connectable="0" parent="5A0B46P36DNqOvIny8CB-75">
          <mxGeometry x="-0.3222" y="-3" relative="1" as="geometry">
            <mxPoint as="offset" />
          </mxGeometry>
        </mxCell>
        <mxCell id="5A0B46P36DNqOvIny8CB-78" value="" style="edgeStyle=none;curved=1;rounded=0;orthogonalLoop=1;jettySize=auto;html=1;fontSize=12;startSize=8;endSize=8;" edge="1" parent="1" source="5A0B46P36DNqOvIny8CB-72" target="5A0B46P36DNqOvIny8CB-77">
          <mxGeometry relative="1" as="geometry" />
        </mxCell>
        <mxCell id="5A0B46P36DNqOvIny8CB-79" value="Nein" style="edgeLabel;html=1;align=center;verticalAlign=middle;resizable=0;points=[];fontSize=12;" vertex="1" connectable="0" parent="5A0B46P36DNqOvIny8CB-78">
          <mxGeometry x="-0.0316" y="1" relative="1" as="geometry">
            <mxPoint as="offset" />
          </mxGeometry>
        </mxCell>
        <mxCell id="5A0B46P36DNqOvIny8CB-72" value="Linker Knopf gedr체ckt?" style="rhombus;whiteSpace=wrap;html=1;" vertex="1" parent="1">
          <mxGeometry x="-104" y="1195" width="113" height="103" as="geometry" />
        </mxCell>
        <mxCell id="5A0B46P36DNqOvIny8CB-82" style="edgeStyle=none;curved=1;rounded=0;orthogonalLoop=1;jettySize=auto;html=1;exitX=0.5;exitY=1;exitDx=0;exitDy=0;entryX=0.5;entryY=0;entryDx=0;entryDy=0;fontSize=12;startSize=8;endSize=8;" edge="1" parent="1" source="5A0B46P36DNqOvIny8CB-74" target="5A0B46P36DNqOvIny8CB-80">
          <mxGeometry relative="1" as="geometry" />
        </mxCell>
        <mxCell id="5A0B46P36DNqOvIny8CB-74" value="Linker Knopf LED an" style="whiteSpace=wrap;html=1;" vertex="1" parent="1">
          <mxGeometry x="125.5" y="1216.5" width="120" height="60" as="geometry" />
        </mxCell>
        <mxCell id="5A0B46P36DNqOvIny8CB-83" style="edgeStyle=none;curved=1;rounded=0;orthogonalLoop=1;jettySize=auto;html=1;exitX=0.5;exitY=1;exitDx=0;exitDy=0;fontSize=12;startSize=8;endSize=8;entryX=0.5;entryY=0;entryDx=0;entryDy=0;" edge="1" parent="1" source="5A0B46P36DNqOvIny8CB-77" target="5A0B46P36DNqOvIny8CB-80">
          <mxGeometry relative="1" as="geometry">
            <mxPoint x="-50.03703703703741" y="1416.8518518518517" as="targetPoint" />
          </mxGeometry>
        </mxCell>
        <mxCell id="5A0B46P36DNqOvIny8CB-77" value="Linker Knopf LED aus" style="whiteSpace=wrap;html=1;" vertex="1" parent="1">
          <mxGeometry x="-340.5" y="1216.5" width="120" height="60" as="geometry" />
        </mxCell>
        <mxCell id="5A0B46P36DNqOvIny8CB-87" value="" style="edgeStyle=none;curved=1;rounded=0;orthogonalLoop=1;jettySize=auto;html=1;fontSize=12;startSize=8;endSize=8;" edge="1" parent="1" source="5A0B46P36DNqOvIny8CB-80" target="5A0B46P36DNqOvIny8CB-86">
          <mxGeometry relative="1" as="geometry" />
        </mxCell>
        <mxCell id="5A0B46P36DNqOvIny8CB-89" value="" style="edgeStyle=none;curved=1;rounded=0;orthogonalLoop=1;jettySize=auto;html=1;fontSize=12;startSize=8;endSize=8;" edge="1" parent="1" source="5A0B46P36DNqOvIny8CB-80" target="5A0B46P36DNqOvIny8CB-88">
          <mxGeometry relative="1" as="geometry" />
        </mxCell>
        <mxCell id="5A0B46P36DNqOvIny8CB-99" value="" style="edgeStyle=none;curved=1;rounded=0;orthogonalLoop=1;jettySize=auto;html=1;fontSize=12;startSize=8;endSize=8;" edge="1" parent="1" source="5A0B46P36DNqOvIny8CB-80" target="5A0B46P36DNqOvIny8CB-98">
          <mxGeometry relative="1" as="geometry" />
        </mxCell>
        <mxCell id="5A0B46P36DNqOvIny8CB-80" value="Rechter Knopf gedr체ckt?" style="rhombus;whiteSpace=wrap;html=1;" vertex="1" parent="1">
          <mxGeometry x="-102.5" y="1359" width="113" height="103" as="geometry" />
        </mxCell>
        <mxCell id="5A0B46P36DNqOvIny8CB-86" value="Rechter Knopf LED an" style="whiteSpace=wrap;html=1;" vertex="1" parent="1">
          <mxGeometry x="127" y="1380.5" width="124" height="60" as="geometry" />
        </mxCell>
        <mxCell id="5A0B46P36DNqOvIny8CB-88" value="Rechter Knopf LED aus" style="whiteSpace=wrap;html=1;" vertex="1" parent="1">
          <mxGeometry x="-347" y="1380.5" width="128" height="60" as="geometry" />
        </mxCell>
        <mxCell id="5A0B46P36DNqOvIny8CB-96" value="" style="edgeStyle=none;curved=1;rounded=0;orthogonalLoop=1;jettySize=auto;html=1;fontSize=12;startSize=8;endSize=8;" edge="1" parent="1" source="5A0B46P36DNqOvIny8CB-94" target="5A0B46P36DNqOvIny8CB-55">
          <mxGeometry relative="1" as="geometry" />
        </mxCell>
        <mxCell id="5A0B46P36DNqOvIny8CB-94" value="moveTimer mit 300 / schwierigkeit Zeit erstellen und starten" style="whiteSpace=wrap;html=1;" vertex="1" parent="1">
          <mxGeometry x="-107.5" y="797" width="120" height="60" as="geometry" />
        </mxCell>
        <mxCell id="5A0B46P36DNqOvIny8CB-102" style="edgeStyle=none;curved=1;rounded=0;orthogonalLoop=1;jettySize=auto;html=1;exitX=1;exitY=0.5;exitDx=0;exitDy=0;entryX=0.5;entryY=0;entryDx=0;entryDy=0;fontSize=12;startSize=8;endSize=8;" edge="1" parent="1" source="5A0B46P36DNqOvIny8CB-98" target="5A0B46P36DNqOvIny8CB-55">
          <mxGeometry relative="1" as="geometry">
            <Array as="points">
              <mxPoint x="427" y="1421" />
              <mxPoint x="200" y="944" />
            </Array>
          </mxGeometry>
        </mxCell>
        <mxCell id="5A0B46P36DNqOvIny8CB-103" value="Nein" style="edgeLabel;html=1;align=center;verticalAlign=middle;resizable=0;points=[];fontSize=12;" vertex="1" connectable="0" parent="5A0B46P36DNqOvIny8CB-102">
          <mxGeometry x="-0.8787" y="-3" relative="1" as="geometry">
            <mxPoint as="offset" />
          </mxGeometry>
        </mxCell>
        <mxCell id="5A0B46P36DNqOvIny8CB-105" value="" style="edgeStyle=none;curved=1;rounded=0;orthogonalLoop=1;jettySize=auto;html=1;fontSize=12;startSize=8;endSize=8;" edge="1" parent="1" source="5A0B46P36DNqOvIny8CB-98" target="5A0B46P36DNqOvIny8CB-104">
          <mxGeometry relative="1" as="geometry" />
        </mxCell>
        <mxCell id="5A0B46P36DNqOvIny8CB-106" value="Ja" style="edgeLabel;html=1;align=center;verticalAlign=middle;resizable=0;points=[];fontSize=12;" vertex="1" connectable="0" parent="5A0B46P36DNqOvIny8CB-105">
          <mxGeometry x="-0.0667" y="-2" relative="1" as="geometry">
            <mxPoint x="-1" as="offset" />
          </mxGeometry>
        </mxCell>
        <mxCell id="5A0B46P36DNqOvIny8CB-98" value="Ist moveTimer abeglaufen?" style="rhombus;whiteSpace=wrap;html=1;" vertex="1" parent="1">
          <mxGeometry x="-100.5" y="1563" width="109" height="104.5" as="geometry" />
        </mxCell>
        <mxCell id="5A0B46P36DNqOvIny8CB-110" value="" style="edgeStyle=none;curved=1;rounded=0;orthogonalLoop=1;jettySize=auto;html=1;fontSize=12;startSize=8;endSize=8;" edge="1" parent="1" source="5A0B46P36DNqOvIny8CB-104" target="5A0B46P36DNqOvIny8CB-109">
          <mxGeometry relative="1" as="geometry" />
        </mxCell>
        <mxCell id="5A0B46P36DNqOvIny8CB-113" value="Nein" style="edgeLabel;html=1;align=center;verticalAlign=middle;resizable=0;points=[];fontSize=12;" vertex="1" connectable="0" parent="5A0B46P36DNqOvIny8CB-110">
          <mxGeometry x="0.0086" y="7" relative="1" as="geometry">
            <mxPoint as="offset" />
          </mxGeometry>
        </mxCell>
        <mxCell id="5A0B46P36DNqOvIny8CB-129" value="" style="edgeStyle=none;curved=1;rounded=0;orthogonalLoop=1;jettySize=auto;html=1;fontSize=12;startSize=8;endSize=8;" edge="1" parent="1" source="5A0B46P36DNqOvIny8CB-104" target="5A0B46P36DNqOvIny8CB-128">
          <mxGeometry relative="1" as="geometry" />
        </mxCell>
        <mxCell id="5A0B46P36DNqOvIny8CB-130" value="Ja" style="edgeLabel;html=1;align=center;verticalAlign=middle;resizable=0;points=[];fontSize=12;" vertex="1" connectable="0" parent="5A0B46P36DNqOvIny8CB-129">
          <mxGeometry x="-0.1053" y="-1" relative="1" as="geometry">
            <mxPoint as="offset" />
          </mxGeometry>
        </mxCell>
        <mxCell id="5A0B46P36DNqOvIny8CB-104" value="Wurde Linker- oder Rechter Knopf gedr체ckt?" style="rhombus;whiteSpace=wrap;html=1;" vertex="1" parent="1">
          <mxGeometry x="-100.5" y="1787.5" width="109" height="104.5" as="geometry" />
        </mxCell>
        <mxCell id="5A0B46P36DNqOvIny8CB-112" value="" style="edgeStyle=none;curved=1;rounded=0;orthogonalLoop=1;jettySize=auto;html=1;fontSize=12;startSize=8;endSize=8;" edge="1" parent="1" source="5A0B46P36DNqOvIny8CB-109" target="5A0B46P36DNqOvIny8CB-111">
          <mxGeometry relative="1" as="geometry" />
        </mxCell>
        <mxCell id="5A0B46P36DNqOvIny8CB-109" value="Alten Schlangenkopf l철schen" style="whiteSpace=wrap;html=1;" vertex="1" parent="1">
          <mxGeometry x="-106" y="2034.25" width="120" height="60" as="geometry" />
        </mxCell>
        <mxCell id="5A0B46P36DNqOvIny8CB-115" value="" style="edgeStyle=none;curved=1;rounded=0;orthogonalLoop=1;jettySize=auto;html=1;fontSize=12;startSize=8;endSize=8;" edge="1" parent="1" source="5A0B46P36DNqOvIny8CB-111" target="5A0B46P36DNqOvIny8CB-114">
          <mxGeometry relative="1" as="geometry" />
        </mxCell>
        <mxCell id="5A0B46P36DNqOvIny8CB-116" value="Nein" style="edgeLabel;html=1;align=center;verticalAlign=middle;resizable=0;points=[];fontSize=12;" vertex="1" connectable="0" parent="5A0B46P36DNqOvIny8CB-115">
          <mxGeometry x="-0.3375" y="2" relative="1" as="geometry">
            <mxPoint as="offset" />
          </mxGeometry>
        </mxCell>
        <mxCell id="5A0B46P36DNqOvIny8CB-140" value="" style="edgeStyle=none;curved=1;rounded=0;orthogonalLoop=1;jettySize=auto;html=1;fontSize=12;startSize=8;endSize=8;" edge="1" parent="1" source="5A0B46P36DNqOvIny8CB-111" target="5A0B46P36DNqOvIny8CB-139">
          <mxGeometry relative="1" as="geometry" />
        </mxCell>
        <mxCell id="5A0B46P36DNqOvIny8CB-111" value="Ber체hrt der Schlangenkopf einen Apfel?" style="rhombus;whiteSpace=wrap;html=1;" vertex="1" parent="1">
          <mxGeometry x="-100.5" y="2173" width="106" height="109.25" as="geometry" />
        </mxCell>
        <mxCell id="5A0B46P36DNqOvIny8CB-120" value="" style="edgeStyle=none;curved=1;rounded=0;orthogonalLoop=1;jettySize=auto;html=1;fontSize=12;startSize=8;endSize=8;" edge="1" parent="1" source="5A0B46P36DNqOvIny8CB-114" target="5A0B46P36DNqOvIny8CB-119">
          <mxGeometry relative="1" as="geometry" />
        </mxCell>
        <mxCell id="5A0B46P36DNqOvIny8CB-147" value="nein" style="edgeLabel;html=1;align=center;verticalAlign=middle;resizable=0;points=[];fontSize=12;" vertex="1" connectable="0" parent="5A0B46P36DNqOvIny8CB-120">
          <mxGeometry x="-0.2442" y="2" relative="1" as="geometry">
            <mxPoint as="offset" />
          </mxGeometry>
        </mxCell>
        <mxCell id="5A0B46P36DNqOvIny8CB-151" value="" style="edgeStyle=none;curved=1;rounded=0;orthogonalLoop=1;jettySize=auto;html=1;fontSize=12;startSize=8;endSize=8;" edge="1" parent="1" source="5A0B46P36DNqOvIny8CB-114" target="5A0B46P36DNqOvIny8CB-150">
          <mxGeometry relative="1" as="geometry" />
        </mxCell>
        <mxCell id="5A0B46P36DNqOvIny8CB-152" value="ja" style="edgeLabel;html=1;align=center;verticalAlign=middle;resizable=0;points=[];fontSize=12;" vertex="1" connectable="0" parent="5A0B46P36DNqOvIny8CB-151">
          <mxGeometry x="-0.0242" y="5" relative="1" as="geometry">
            <mxPoint as="offset" />
          </mxGeometry>
        </mxCell>
        <mxCell id="5A0B46P36DNqOvIny8CB-114" value="Schlangenl채nge &amp;gt; 0?" style="rhombus;whiteSpace=wrap;html=1;" vertex="1" parent="1">
          <mxGeometry x="-106.75" y="2422" width="121.5" height="85.5" as="geometry" />
        </mxCell>
        <mxCell id="5A0B46P36DNqOvIny8CB-122" value="" style="edgeStyle=none;curved=1;rounded=0;orthogonalLoop=1;jettySize=auto;html=1;fontSize=12;startSize=8;endSize=8;" edge="1" parent="1" source="5A0B46P36DNqOvIny8CB-119" target="5A0B46P36DNqOvIny8CB-121">
          <mxGeometry relative="1" as="geometry" />
        </mxCell>
        <mxCell id="5A0B46P36DNqOvIny8CB-119" value="Bewege die Schlange in die gegebene Richtung" style="shape=process;whiteSpace=wrap;html=1;backgroundOutline=1;" vertex="1" parent="1">
          <mxGeometry x="-106" y="2640.25" width="120" height="60" as="geometry" />
        </mxCell>
        <mxCell id="5A0B46P36DNqOvIny8CB-124" value="" style="edgeStyle=none;curved=1;rounded=0;orthogonalLoop=1;jettySize=auto;html=1;fontSize=12;startSize=8;endSize=8;" edge="1" parent="1" source="5A0B46P36DNqOvIny8CB-121" target="5A0B46P36DNqOvIny8CB-123">
          <mxGeometry relative="1" as="geometry" />
        </mxCell>
        <mxCell id="5A0B46P36DNqOvIny8CB-148" value="nein" style="edgeLabel;html=1;align=center;verticalAlign=middle;resizable=0;points=[];fontSize=12;" vertex="1" connectable="0" parent="5A0B46P36DNqOvIny8CB-124">
          <mxGeometry x="-0.1821" y="2" relative="1" as="geometry">
            <mxPoint as="offset" />
          </mxGeometry>
        </mxCell>
        <mxCell id="5A0B46P36DNqOvIny8CB-155" value="" style="edgeStyle=none;curved=1;rounded=0;orthogonalLoop=1;jettySize=auto;html=1;fontSize=12;startSize=8;endSize=8;" edge="1" parent="1" source="5A0B46P36DNqOvIny8CB-121" target="5A0B46P36DNqOvIny8CB-154">
          <mxGeometry relative="1" as="geometry" />
        </mxCell>
        <mxCell id="5A0B46P36DNqOvIny8CB-156" value="ja" style="edgeLabel;html=1;align=center;verticalAlign=middle;resizable=0;points=[];fontSize=12;" vertex="1" connectable="0" parent="5A0B46P36DNqOvIny8CB-155">
          <mxGeometry x="-0.1921" y="1" relative="1" as="geometry">
            <mxPoint as="offset" />
          </mxGeometry>
        </mxCell>
        <mxCell id="5A0B46P36DNqOvIny8CB-121" value="Ist der Schlangenkopf aus der Arena oder die Schlange ber체hrt seinenen eigenen K철rper?" style="rhombus;whiteSpace=wrap;html=1;" vertex="1" parent="1">
          <mxGeometry x="-120.5" y="2789" width="149" height="162.75" as="geometry" />
        </mxCell>
        <mxCell id="5A0B46P36DNqOvIny8CB-126" value="" style="edgeStyle=none;curved=1;rounded=0;orthogonalLoop=1;jettySize=auto;html=1;fontSize=12;startSize=8;endSize=8;" edge="1" parent="1" source="5A0B46P36DNqOvIny8CB-123" target="5A0B46P36DNqOvIny8CB-125">
          <mxGeometry relative="1" as="geometry" />
        </mxCell>
        <mxCell id="5A0B46P36DNqOvIny8CB-123" value="Die Schlange inklusive Schwanz und den&amp;nbsp;Appfel auf den&amp;nbsp;Screen malen" style="whiteSpace=wrap;html=1;" vertex="1" parent="1">
          <mxGeometry x="-106" y="3123.125" width="120" height="60" as="geometry" />
        </mxCell>
        <mxCell id="5A0B46P36DNqOvIny8CB-158" style="edgeStyle=none;curved=1;rounded=0;orthogonalLoop=1;jettySize=auto;html=1;exitX=0.5;exitY=1;exitDx=0;exitDy=0;entryX=0.5;entryY=0;entryDx=0;entryDy=0;fontSize=12;startSize=8;endSize=8;" edge="1" parent="1" source="5A0B46P36DNqOvIny8CB-125" target="5A0B46P36DNqOvIny8CB-55">
          <mxGeometry relative="1" as="geometry">
            <Array as="points">
              <mxPoint x="2235" y="615" />
            </Array>
          </mxGeometry>
        </mxCell>
        <mxCell id="5A0B46P36DNqOvIny8CB-125" value="moveTimer neustarten" style="whiteSpace=wrap;html=1;" vertex="1" parent="1">
          <mxGeometry x="-106" y="3303.125" width="120" height="60" as="geometry" />
        </mxCell>
        <mxCell id="5A0B46P36DNqOvIny8CB-132" value="" style="edgeStyle=none;curved=1;rounded=0;orthogonalLoop=1;jettySize=auto;html=1;fontSize=12;startSize=8;endSize=8;" edge="1" parent="1" source="5A0B46P36DNqOvIny8CB-128" target="5A0B46P36DNqOvIny8CB-131">
          <mxGeometry relative="1" as="geometry" />
        </mxCell>
        <mxCell id="5A0B46P36DNqOvIny8CB-133" value="Ja" style="edgeLabel;html=1;align=center;verticalAlign=middle;resizable=0;points=[];fontSize=12;" vertex="1" connectable="0" parent="5A0B46P36DNqOvIny8CB-132">
          <mxGeometry x="-0.1883" y="2" relative="1" as="geometry">
            <mxPoint as="offset" />
          </mxGeometry>
        </mxCell>
        <mxCell id="5A0B46P36DNqOvIny8CB-136" value="" style="edgeStyle=none;curved=1;rounded=0;orthogonalLoop=1;jettySize=auto;html=1;fontSize=12;startSize=8;endSize=8;" edge="1" parent="1" source="5A0B46P36DNqOvIny8CB-128">
          <mxGeometry relative="1" as="geometry">
            <mxPoint x="370" y="1686" as="targetPoint" />
          </mxGeometry>
        </mxCell>
        <mxCell id="5A0B46P36DNqOvIny8CB-137" value="Nein" style="edgeLabel;html=1;align=center;verticalAlign=middle;resizable=0;points=[];fontSize=12;" vertex="1" connectable="0" parent="5A0B46P36DNqOvIny8CB-136">
          <mxGeometry x="-0.1615" y="-2" relative="1" as="geometry">
            <mxPoint as="offset" />
          </mxGeometry>
        </mxCell>
        <mxCell id="5A0B46P36DNqOvIny8CB-128" value="War letzt gedr체ckter Knopf Links?" style="rhombus;whiteSpace=wrap;html=1;" vertex="1" parent="1">
          <mxGeometry x="132" y="1793.87" width="119" height="91.75" as="geometry" />
        </mxCell>
        <mxCell id="5A0B46P36DNqOvIny8CB-134" style="edgeStyle=none;curved=1;rounded=0;orthogonalLoop=1;jettySize=auto;html=1;exitX=0.5;exitY=1;exitDx=0;exitDy=0;entryX=0.5;entryY=0;entryDx=0;entryDy=0;fontSize=12;startSize=8;endSize=8;" edge="1" parent="1" source="5A0B46P36DNqOvIny8CB-131" target="5A0B46P36DNqOvIny8CB-109">
          <mxGeometry relative="1" as="geometry" />
        </mxCell>
        <mxCell id="5A0B46P36DNqOvIny8CB-131" value="Richtung - 1" style="whiteSpace=wrap;html=1;" vertex="1" parent="1">
          <mxGeometry x="370.5" y="1809.745" width="120" height="60" as="geometry" />
        </mxCell>
        <mxCell id="5A0B46P36DNqOvIny8CB-138" style="edgeStyle=none;curved=1;rounded=0;orthogonalLoop=1;jettySize=auto;html=1;exitX=1;exitY=0.5;exitDx=0;exitDy=0;entryX=0.5;entryY=0;entryDx=0;entryDy=0;fontSize=12;startSize=8;endSize=8;" edge="1" parent="1" source="5A0B46P36DNqOvIny8CB-135" target="5A0B46P36DNqOvIny8CB-109">
          <mxGeometry relative="1" as="geometry">
            <Array as="points">
              <mxPoint x="873" y="1857" />
            </Array>
          </mxGeometry>
        </mxCell>
        <mxCell id="5A0B46P36DNqOvIny8CB-135" value="Richtung + 1" style="whiteSpace=wrap;html=1;" vertex="1" parent="1">
          <mxGeometry x="370.5" y="1658.0049999999999" width="120" height="60" as="geometry" />
        </mxCell>
        <mxCell id="5A0B46P36DNqOvIny8CB-143" value="" style="edgeStyle=none;curved=1;rounded=0;orthogonalLoop=1;jettySize=auto;html=1;fontSize=12;startSize=8;endSize=8;" edge="1" parent="1" source="5A0B46P36DNqOvIny8CB-139" target="5A0B46P36DNqOvIny8CB-142">
          <mxGeometry relative="1" as="geometry" />
        </mxCell>
        <mxCell id="5A0B46P36DNqOvIny8CB-139" value="Schlangenl채nge + 1" style="whiteSpace=wrap;html=1;" vertex="1" parent="1">
          <mxGeometry x="118.5" y="2197.625" width="120" height="60" as="geometry" />
        </mxCell>
        <mxCell id="5A0B46P36DNqOvIny8CB-141" value="Ja" style="text;html=1;align=center;verticalAlign=middle;resizable=0;points=[];autosize=1;strokeColor=none;fillColor=none;fontSize=16;" vertex="1" parent="1">
          <mxGeometry x="40.5" y="2213.5" width="35" height="31" as="geometry" />
        </mxCell>
        <mxCell id="5A0B46P36DNqOvIny8CB-144" style="edgeStyle=none;curved=1;rounded=0;orthogonalLoop=1;jettySize=auto;html=1;exitX=0.5;exitY=1;exitDx=0;exitDy=0;entryX=0.5;entryY=0;entryDx=0;entryDy=0;fontSize=12;startSize=8;endSize=8;" edge="1" parent="1" source="5A0B46P36DNqOvIny8CB-142" target="5A0B46P36DNqOvIny8CB-114">
          <mxGeometry relative="1" as="geometry" />
        </mxCell>
        <mxCell id="5A0B46P36DNqOvIny8CB-142" value="Neen Appfel nicht auf der Schlange platzieren." style="shape=process;whiteSpace=wrap;html=1;backgroundOutline=1;" vertex="1" parent="1">
          <mxGeometry x="358.5" y="2197.625" width="120" height="60" as="geometry" />
        </mxCell>
        <mxCell id="5A0B46P36DNqOvIny8CB-153" style="edgeStyle=none;curved=1;rounded=0;orthogonalLoop=1;jettySize=auto;html=1;exitX=0.5;exitY=1;exitDx=0;exitDy=0;entryX=0.5;entryY=0;entryDx=0;entryDy=0;fontSize=12;startSize=8;endSize=8;" edge="1" parent="1" source="5A0B46P36DNqOvIny8CB-150" target="5A0B46P36DNqOvIny8CB-119">
          <mxGeometry relative="1" as="geometry" />
        </mxCell>
        <mxCell id="5A0B46P36DNqOvIny8CB-150" value="Schlangenschwanz auf dem Bild malen mit der gegebenen L채nge" style="shape=process;whiteSpace=wrap;html=1;backgroundOutline=1;" vertex="1" parent="1">
          <mxGeometry x="135.5" y="2434.75" width="129.5" height="60.25" as="geometry" />
        </mxCell>
        <mxCell id="5A0B46P36DNqOvIny8CB-157" style="edgeStyle=none;curved=1;rounded=0;orthogonalLoop=1;jettySize=auto;html=1;exitX=0.5;exitY=1;exitDx=0;exitDy=0;entryX=0.5;entryY=0;entryDx=0;entryDy=0;fontSize=12;startSize=8;endSize=8;" edge="1" parent="1" source="5A0B46P36DNqOvIny8CB-154" target="5A0B46P36DNqOvIny8CB-123">
          <mxGeometry relative="1" as="geometry" />
        </mxCell>
        <mxCell id="5A0B46P36DNqOvIny8CB-154" value="gameOver = true" style="whiteSpace=wrap;html=1;" vertex="1" parent="1">
          <mxGeometry x="163" y="2840.375" width="120" height="60" as="geometry" />
        </mxCell>
      </root>
    </mxGraphModel>
  </diagram>
  <diagram id="v__jQCXiaxcm8U4NjwK0" name="Tic Tac Toe">
    <mxGraphModel dx="2440" dy="1547" grid="1" gridSize="10" guides="1" tooltips="1" connect="1" arrows="1" fold="1" page="0" pageScale="1" pageWidth="827" pageHeight="1169" math="0" shadow="0">
      <root>
        <mxCell id="0" />
        <mxCell id="1" parent="0" />
        <mxCell id="mIKWCSHCjzqlFlOlb3xv-1" style="edgeStyle=none;curved=1;rounded=0;orthogonalLoop=1;jettySize=auto;html=1;exitX=0.5;exitY=1;exitDx=0;exitDy=0;entryX=0.5;entryY=0;entryDx=0;entryDy=0;fontSize=12;startSize=8;endSize=8;" edge="1" parent="1" source="mIKWCSHCjzqlFlOlb3xv-2" target="mIKWCSHCjzqlFlOlb3xv-4">
          <mxGeometry relative="1" as="geometry" />
        </mxCell>
        <mxCell id="mIKWCSHCjzqlFlOlb3xv-2" value="Programm ausgew채hlt" style="rounded=1;whiteSpace=wrap;html=1;" vertex="1" parent="1">
          <mxGeometry x="160" y="-40" width="120" height="40" as="geometry" />
        </mxCell>
        <mxCell id="mIKWCSHCjzqlFlOlb3xv-3" style="edgeStyle=none;curved=1;rounded=0;orthogonalLoop=1;jettySize=auto;html=1;exitX=0.5;exitY=1;exitDx=0;exitDy=0;entryX=0.5;entryY=0;entryDx=0;entryDy=0;fontSize=12;startSize=8;endSize=8;" edge="1" parent="1" source="mIKWCSHCjzqlFlOlb3xv-4" target="mIKWCSHCjzqlFlOlb3xv-6">
          <mxGeometry relative="1" as="geometry" />
        </mxCell>
        <mxCell id="mIKWCSHCjzqlFlOlb3xv-4" value="Setup" style="rounded=1;whiteSpace=wrap;html=1;" vertex="1" parent="1">
          <mxGeometry x="160" y="40" width="120" height="40" as="geometry" />
        </mxCell>
        <mxCell id="mIKWCSHCjzqlFlOlb3xv-5" style="edgeStyle=none;curved=1;rounded=0;orthogonalLoop=1;jettySize=auto;html=1;exitX=0.5;exitY=1;exitDx=0;exitDy=0;entryX=0.5;entryY=0;entryDx=0;entryDy=0;fontSize=12;startSize=8;endSize=8;" edge="1" parent="1" source="mIKWCSHCjzqlFlOlb3xv-6" target="mIKWCSHCjzqlFlOlb3xv-9">
          <mxGeometry relative="1" as="geometry" />
        </mxCell>
        <mxCell id="mIKWCSHCjzqlFlOlb3xv-6" value="Starting Screen" style="rounded=1;whiteSpace=wrap;html=1;" vertex="1" parent="1">
          <mxGeometry x="160" y="120" width="120" height="40" as="geometry" />
        </mxCell>
        <mxCell id="mIKWCSHCjzqlFlOlb3xv-7" style="edgeStyle=none;curved=1;rounded=0;orthogonalLoop=1;jettySize=auto;html=1;exitX=1;exitY=0.5;exitDx=0;exitDy=0;entryX=1;entryY=0.5;entryDx=0;entryDy=0;fontSize=12;startSize=8;endSize=8;" edge="1" parent="1" source="mIKWCSHCjzqlFlOlb3xv-9" target="mIKWCSHCjzqlFlOlb3xv-6">
          <mxGeometry relative="1" as="geometry">
            <mxPoint x="340" y="250" as="targetPoint" />
            <Array as="points">
              <mxPoint x="470" y="240" />
            </Array>
          </mxGeometry>
        </mxCell>
        <mxCell id="mIKWCSHCjzqlFlOlb3xv-8" style="edgeStyle=none;curved=1;rounded=0;orthogonalLoop=1;jettySize=auto;html=1;exitX=0;exitY=0.5;exitDx=0;exitDy=0;entryX=1;entryY=0.5;entryDx=0;entryDy=0;fontSize=12;startSize=8;endSize=8;" edge="1" parent="1" source="mIKWCSHCjzqlFlOlb3xv-9" target="mIKWCSHCjzqlFlOlb3xv-14">
          <mxGeometry relative="1" as="geometry" />
        </mxCell>
        <mxCell id="mIKWCSHCjzqlFlOlb3xv-9" value="Ger채usch geh철rt?" style="rhombus;whiteSpace=wrap;html=1;" vertex="1" parent="1">
          <mxGeometry x="170" y="200" width="100" height="100" as="geometry" />
        </mxCell>
        <mxCell id="mIKWCSHCjzqlFlOlb3xv-10" value="Ja" style="text;html=1;align=center;verticalAlign=middle;resizable=0;points=[];autosize=1;strokeColor=none;fillColor=none;fontSize=16;" vertex="1" parent="1">
          <mxGeometry x="120" y="211" width="40" height="30" as="geometry" />
        </mxCell>
        <mxCell id="mIKWCSHCjzqlFlOlb3xv-11" value="Nein" style="text;html=1;align=center;verticalAlign=middle;resizable=0;points=[];autosize=1;strokeColor=none;fillColor=none;fontSize=16;" vertex="1" parent="1">
          <mxGeometry x="280" y="211" width="60" height="30" as="geometry" />
        </mxCell>
        <mxCell id="mIKWCSHCjzqlFlOlb3xv-13" style="edgeStyle=none;curved=1;rounded=0;orthogonalLoop=1;jettySize=auto;html=1;exitX=0.5;exitY=1;exitDx=0;exitDy=0;entryX=0.5;entryY=0;entryDx=0;entryDy=0;fontSize=12;startSize=8;endSize=8;" edge="1" parent="1" source="mIKWCSHCjzqlFlOlb3xv-14" target="mIKWCSHCjzqlFlOlb3xv-16">
          <mxGeometry relative="1" as="geometry" />
        </mxCell>
        <mxCell id="mIKWCSHCjzqlFlOlb3xv-14" value="Spiel Starten" style="rounded=1;whiteSpace=wrap;html=1;" vertex="1" parent="1">
          <mxGeometry x="-10" y="230" width="120" height="40" as="geometry" />
        </mxCell>
        <mxCell id="mIKWCSHCjzqlFlOlb3xv-32" style="edgeStyle=none;curved=1;rounded=0;orthogonalLoop=1;jettySize=auto;html=1;exitX=0.5;exitY=1;exitDx=0;exitDy=0;entryX=0.5;entryY=0;entryDx=0;entryDy=0;fontSize=12;startSize=8;endSize=8;" edge="1" parent="1" source="mIKWCSHCjzqlFlOlb3xv-16" target="mIKWCSHCjzqlFlOlb3xv-29">
          <mxGeometry relative="1" as="geometry" />
        </mxCell>
        <mxCell id="mIKWCSHCjzqlFlOlb3xv-16" value="DrawArena" style="rounded=1;whiteSpace=wrap;html=1;" vertex="1" parent="1">
          <mxGeometry x="-10" y="310" width="120" height="40" as="geometry" />
        </mxCell>
        <mxCell id="mIKWCSHCjzqlFlOlb3xv-34" style="edgeStyle=none;curved=1;rounded=0;orthogonalLoop=1;jettySize=auto;html=1;exitX=0;exitY=0.5;exitDx=0;exitDy=0;entryX=1;entryY=0.5;entryDx=0;entryDy=0;fontSize=12;startSize=8;endSize=8;" edge="1" parent="1" source="mIKWCSHCjzqlFlOlb3xv-29" target="mIKWCSHCjzqlFlOlb3xv-33">
          <mxGeometry relative="1" as="geometry" />
        </mxCell>
        <mxCell id="mIKWCSHCjzqlFlOlb3xv-36" style="edgeStyle=none;curved=1;rounded=0;orthogonalLoop=1;jettySize=auto;html=1;exitX=1;exitY=0.5;exitDx=0;exitDy=0;entryX=0;entryY=0.5;entryDx=0;entryDy=0;fontSize=12;startSize=8;endSize=8;" edge="1" parent="1" source="mIKWCSHCjzqlFlOlb3xv-29" target="mIKWCSHCjzqlFlOlb3xv-35">
          <mxGeometry relative="1" as="geometry" />
        </mxCell>
        <mxCell id="mIKWCSHCjzqlFlOlb3xv-29" value="Is Player1 Turn?" style="rhombus;whiteSpace=wrap;html=1;" vertex="1" parent="1">
          <mxGeometry x="-5" y="390" width="110" height="110" as="geometry" />
        </mxCell>
        <mxCell id="mIKWCSHCjzqlFlOlb3xv-30" value="Ja" style="text;html=1;align=center;verticalAlign=middle;resizable=0;points=[];autosize=1;strokeColor=none;fillColor=none;fontSize=16;" vertex="1" parent="1">
          <mxGeometry x="-70" y="400" width="40" height="30" as="geometry" />
        </mxCell>
        <mxCell id="mIKWCSHCjzqlFlOlb3xv-31" value="Nein" style="text;html=1;align=center;verticalAlign=middle;resizable=0;points=[];autosize=1;strokeColor=none;fillColor=none;fontSize=16;" vertex="1" parent="1">
          <mxGeometry x="110" y="400" width="60" height="30" as="geometry" />
        </mxCell>
        <mxCell id="mIKWCSHCjzqlFlOlb3xv-39" style="edgeStyle=none;curved=1;rounded=0;orthogonalLoop=1;jettySize=auto;html=1;exitX=0.5;exitY=1;exitDx=0;exitDy=0;entryX=0.5;entryY=0;entryDx=0;entryDy=0;fontSize=12;startSize=8;endSize=8;" edge="1" parent="1" source="mIKWCSHCjzqlFlOlb3xv-33" target="mIKWCSHCjzqlFlOlb3xv-38">
          <mxGeometry relative="1" as="geometry" />
        </mxCell>
        <mxCell id="mIKWCSHCjzqlFlOlb3xv-33" value="MoveO" style="rounded=1;whiteSpace=wrap;html=1;" vertex="1" parent="1">
          <mxGeometry x="-220" y="425" width="120" height="40" as="geometry" />
        </mxCell>
        <mxCell id="mIKWCSHCjzqlFlOlb3xv-41" style="edgeStyle=none;curved=1;rounded=0;orthogonalLoop=1;jettySize=auto;html=1;exitX=0.5;exitY=1;exitDx=0;exitDy=0;entryX=0.5;entryY=0;entryDx=0;entryDy=0;fontSize=12;startSize=8;endSize=8;" edge="1" parent="1" source="mIKWCSHCjzqlFlOlb3xv-35" target="mIKWCSHCjzqlFlOlb3xv-40">
          <mxGeometry relative="1" as="geometry" />
        </mxCell>
        <mxCell id="mIKWCSHCjzqlFlOlb3xv-35" value="MoveX" style="rounded=1;whiteSpace=wrap;html=1;" vertex="1" parent="1">
          <mxGeometry x="180" y="425" width="120" height="40" as="geometry" />
        </mxCell>
        <mxCell id="mIKWCSHCjzqlFlOlb3xv-43" style="edgeStyle=none;curved=1;rounded=0;orthogonalLoop=1;jettySize=auto;html=1;exitX=0.5;exitY=1;exitDx=0;exitDy=0;entryX=0.5;entryY=0;entryDx=0;entryDy=0;fontSize=12;startSize=8;endSize=8;" edge="1" parent="1" source="mIKWCSHCjzqlFlOlb3xv-38" target="mIKWCSHCjzqlFlOlb3xv-42">
          <mxGeometry relative="1" as="geometry" />
        </mxCell>
        <mxCell id="mIKWCSHCjzqlFlOlb3xv-38" value="WaitForNoise" style="rounded=1;whiteSpace=wrap;html=1;" vertex="1" parent="1">
          <mxGeometry x="-220" y="500" width="120" height="40" as="geometry" />
        </mxCell>
        <mxCell id="mIKWCSHCjzqlFlOlb3xv-45" style="edgeStyle=none;curved=1;rounded=0;orthogonalLoop=1;jettySize=auto;html=1;exitX=0.5;exitY=1;exitDx=0;exitDy=0;entryX=0.5;entryY=0;entryDx=0;entryDy=0;fontSize=12;startSize=8;endSize=8;" edge="1" parent="1" source="mIKWCSHCjzqlFlOlb3xv-40" target="mIKWCSHCjzqlFlOlb3xv-44">
          <mxGeometry relative="1" as="geometry" />
        </mxCell>
        <mxCell id="mIKWCSHCjzqlFlOlb3xv-40" value="WaitForNoise" style="rounded=1;whiteSpace=wrap;html=1;" vertex="1" parent="1">
          <mxGeometry x="180" y="500" width="120" height="40" as="geometry" />
        </mxCell>
        <mxCell id="dMAaWepAQa2UVExJ8PkP-2" style="edgeStyle=none;curved=1;rounded=0;orthogonalLoop=1;jettySize=auto;html=1;exitX=0.5;exitY=1;exitDx=0;exitDy=0;entryX=0.5;entryY=0;entryDx=0;entryDy=0;fontSize=12;startSize=8;endSize=8;" edge="1" parent="1" source="mIKWCSHCjzqlFlOlb3xv-42" target="dMAaWepAQa2UVExJ8PkP-1">
          <mxGeometry relative="1" as="geometry" />
        </mxCell>
        <mxCell id="mIKWCSHCjzqlFlOlb3xv-42" value="DrawO" style="rounded=1;whiteSpace=wrap;html=1;" vertex="1" parent="1">
          <mxGeometry x="-220" y="580" width="120" height="40" as="geometry" />
        </mxCell>
        <mxCell id="dMAaWepAQa2UVExJ8PkP-4" style="edgeStyle=none;curved=1;rounded=0;orthogonalLoop=1;jettySize=auto;html=1;exitX=0.5;exitY=1;exitDx=0;exitDy=0;entryX=0.5;entryY=0;entryDx=0;entryDy=0;fontSize=12;startSize=8;endSize=8;" edge="1" parent="1" source="mIKWCSHCjzqlFlOlb3xv-44" target="dMAaWepAQa2UVExJ8PkP-3">
          <mxGeometry relative="1" as="geometry" />
        </mxCell>
        <mxCell id="mIKWCSHCjzqlFlOlb3xv-44" value="DrawX" style="rounded=1;whiteSpace=wrap;html=1;" vertex="1" parent="1">
          <mxGeometry x="180" y="580" width="120" height="40" as="geometry" />
        </mxCell>
        <mxCell id="mIKWCSHCjzqlFlOlb3xv-56" style="edgeStyle=none;curved=1;rounded=0;orthogonalLoop=1;jettySize=auto;html=1;exitX=0.5;exitY=1;exitDx=0;exitDy=0;entryX=0.5;entryY=0;entryDx=0;entryDy=0;fontSize=12;startSize=8;endSize=8;" edge="1" parent="1" source="mIKWCSHCjzqlFlOlb3xv-49" target="mIKWCSHCjzqlFlOlb3xv-29">
          <mxGeometry relative="1" as="geometry">
            <Array as="points">
              <mxPoint x="-290" y="850" />
              <mxPoint x="-330" y="260" />
            </Array>
          </mxGeometry>
        </mxCell>
        <mxCell id="mIKWCSHCjzqlFlOlb3xv-49" value="ChangeTurn" style="rounded=1;whiteSpace=wrap;html=1;" vertex="1" parent="1">
          <mxGeometry x="-220" y="870" width="120" height="40" as="geometry" />
        </mxCell>
        <mxCell id="mIKWCSHCjzqlFlOlb3xv-55" style="edgeStyle=none;curved=1;rounded=0;orthogonalLoop=1;jettySize=auto;html=1;exitX=0.5;exitY=1;exitDx=0;exitDy=0;entryX=0.5;entryY=0;entryDx=0;entryDy=0;fontSize=12;startSize=8;endSize=8;" edge="1" parent="1" source="mIKWCSHCjzqlFlOlb3xv-54" target="mIKWCSHCjzqlFlOlb3xv-29">
          <mxGeometry relative="1" as="geometry">
            <Array as="points">
              <mxPoint x="340" y="860" />
              <mxPoint x="490" y="270" />
            </Array>
          </mxGeometry>
        </mxCell>
        <mxCell id="mIKWCSHCjzqlFlOlb3xv-54" value="ChangeTurn" style="rounded=1;whiteSpace=wrap;html=1;" vertex="1" parent="1">
          <mxGeometry x="180" y="870" width="120" height="40" as="geometry" />
        </mxCell>
        <mxCell id="dMAaWepAQa2UVExJ8PkP-7" style="edgeStyle=none;curved=1;rounded=0;orthogonalLoop=1;jettySize=auto;html=1;exitX=0;exitY=0.5;exitDx=0;exitDy=0;entryX=0.5;entryY=0;entryDx=0;entryDy=0;fontSize=12;startSize=8;endSize=8;" edge="1" parent="1" source="dMAaWepAQa2UVExJ8PkP-1" target="mIKWCSHCjzqlFlOlb3xv-49">
          <mxGeometry relative="1" as="geometry" />
        </mxCell>
        <mxCell id="dMAaWepAQa2UVExJ8PkP-12" style="edgeStyle=none;curved=1;rounded=0;orthogonalLoop=1;jettySize=auto;html=1;exitX=1;exitY=0.5;exitDx=0;exitDy=0;entryX=0.5;entryY=0;entryDx=0;entryDy=0;fontSize=12;startSize=8;endSize=8;" edge="1" parent="1" source="dMAaWepAQa2UVExJ8PkP-1" target="dMAaWepAQa2UVExJ8PkP-11">
          <mxGeometry relative="1" as="geometry">
            <Array as="points">
              <mxPoint x="-10" y="650" />
            </Array>
          </mxGeometry>
        </mxCell>
        <mxCell id="dMAaWepAQa2UVExJ8PkP-1" value="Gewonnen?" style="rhombus;whiteSpace=wrap;html=1;" vertex="1" parent="1">
          <mxGeometry x="-200" y="650" width="80" height="80" as="geometry" />
        </mxCell>
        <mxCell id="dMAaWepAQa2UVExJ8PkP-10" style="edgeStyle=none;curved=1;rounded=0;orthogonalLoop=1;jettySize=auto;html=1;exitX=1;exitY=0.5;exitDx=0;exitDy=0;entryX=0.5;entryY=0;entryDx=0;entryDy=0;fontSize=12;startSize=8;endSize=8;" edge="1" parent="1" source="dMAaWepAQa2UVExJ8PkP-3" target="mIKWCSHCjzqlFlOlb3xv-54">
          <mxGeometry relative="1" as="geometry" />
        </mxCell>
        <mxCell id="dMAaWepAQa2UVExJ8PkP-13" style="edgeStyle=none;curved=1;rounded=0;orthogonalLoop=1;jettySize=auto;html=1;exitX=0;exitY=0.5;exitDx=0;exitDy=0;entryX=0.5;entryY=0;entryDx=0;entryDy=0;fontSize=12;startSize=8;endSize=8;" edge="1" parent="1" source="dMAaWepAQa2UVExJ8PkP-3" target="dMAaWepAQa2UVExJ8PkP-11">
          <mxGeometry relative="1" as="geometry">
            <Array as="points">
              <mxPoint x="80" y="650" />
            </Array>
          </mxGeometry>
        </mxCell>
        <mxCell id="dMAaWepAQa2UVExJ8PkP-3" value="Gewonnen?" style="rhombus;whiteSpace=wrap;html=1;" vertex="1" parent="1">
          <mxGeometry x="200" y="650" width="80" height="80" as="geometry" />
        </mxCell>
        <mxCell id="dMAaWepAQa2UVExJ8PkP-5" value="&lt;div&gt;Nein&lt;/div&gt;" style="text;html=1;align=center;verticalAlign=middle;resizable=0;points=[];autosize=1;strokeColor=none;fillColor=none;fontSize=16;" vertex="1" parent="1">
          <mxGeometry x="-250" y="641" width="60" height="30" as="geometry" />
        </mxCell>
        <mxCell id="dMAaWepAQa2UVExJ8PkP-6" value="Ja" style="text;html=1;align=center;verticalAlign=middle;resizable=0;points=[];autosize=1;strokeColor=none;fillColor=none;fontSize=16;" vertex="1" parent="1">
          <mxGeometry x="-136" y="641" width="40" height="30" as="geometry" />
        </mxCell>
        <mxCell id="dMAaWepAQa2UVExJ8PkP-8" value="Ja" style="text;html=1;align=center;verticalAlign=middle;resizable=0;points=[];autosize=1;strokeColor=none;fillColor=none;fontSize=16;" vertex="1" parent="1">
          <mxGeometry x="160" y="650" width="40" height="30" as="geometry" />
        </mxCell>
        <mxCell id="dMAaWepAQa2UVExJ8PkP-9" value="&lt;div&gt;Nein&lt;/div&gt;" style="text;html=1;align=center;verticalAlign=middle;resizable=0;points=[];autosize=1;strokeColor=none;fillColor=none;fontSize=16;" vertex="1" parent="1">
          <mxGeometry x="270" y="650" width="60" height="30" as="geometry" />
        </mxCell>
        <mxCell id="dMAaWepAQa2UVExJ8PkP-15" style="edgeStyle=none;curved=1;rounded=0;orthogonalLoop=1;jettySize=auto;html=1;exitX=0.5;exitY=1;exitDx=0;exitDy=0;entryX=0.5;entryY=0;entryDx=0;entryDy=0;fontSize=12;startSize=8;endSize=8;" edge="1" parent="1" source="dMAaWepAQa2UVExJ8PkP-11" target="dMAaWepAQa2UVExJ8PkP-14">
          <mxGeometry relative="1" as="geometry" />
        </mxCell>
        <mxCell id="dMAaWepAQa2UVExJ8PkP-11" value="StartEnd" style="rounded=1;whiteSpace=wrap;html=1;" vertex="1" parent="1">
          <mxGeometry x="-30" y="720" width="120" height="40" as="geometry" />
        </mxCell>
        <mxCell id="dMAaWepAQa2UVExJ8PkP-16" style="edgeStyle=none;curved=1;rounded=0;orthogonalLoop=1;jettySize=auto;html=1;exitX=0.5;exitY=1;exitDx=0;exitDy=0;entryX=1;entryY=0.5;entryDx=0;entryDy=0;fontSize=12;startSize=8;endSize=8;" edge="1" parent="1" source="dMAaWepAQa2UVExJ8PkP-14" target="mIKWCSHCjzqlFlOlb3xv-4">
          <mxGeometry relative="1" as="geometry">
            <Array as="points">
              <mxPoint x="470" y="1240" />
              <mxPoint x="590" y="-80" />
            </Array>
          </mxGeometry>
        </mxCell>
        <mxCell id="dMAaWepAQa2UVExJ8PkP-14" value="WaitForNoise" style="rounded=1;whiteSpace=wrap;html=1;" vertex="1" parent="1">
          <mxGeometry x="-30" y="800" width="120" height="40" as="geometry" />
        </mxCell>
      </root>
    </mxGraphModel>
  </diagram>
  <diagram id="x-qjlkco8K9bc8IQ5LCU" name="4 Gewinnt">
    <mxGraphModel dx="1828" dy="1203" grid="1" gridSize="10" guides="1" tooltips="1" connect="1" arrows="1" fold="1" page="0" pageScale="1" pageWidth="827" pageHeight="1169" math="0" shadow="0">
      <root>
        <mxCell id="0" />
        <mxCell id="1" parent="0" />
        <mxCell id="zY4RZjGk8QixvLDHZW2z-1" style="edgeStyle=none;curved=1;rounded=0;orthogonalLoop=1;jettySize=auto;html=1;exitX=0.5;exitY=1;exitDx=0;exitDy=0;entryX=0.5;entryY=0;entryDx=0;entryDy=0;fontSize=12;startSize=8;endSize=8;" edge="1" parent="1" source="zY4RZjGk8QixvLDHZW2z-2" target="zY4RZjGk8QixvLDHZW2z-4">
          <mxGeometry relative="1" as="geometry" />
        </mxCell>
        <mxCell id="zY4RZjGk8QixvLDHZW2z-2" value="Programm ausgew채hlt" style="rounded=1;whiteSpace=wrap;html=1;" vertex="1" parent="1">
          <mxGeometry x="160" y="-40" width="120" height="40" as="geometry" />
        </mxCell>
        <mxCell id="zY4RZjGk8QixvLDHZW2z-3" style="edgeStyle=none;curved=1;rounded=0;orthogonalLoop=1;jettySize=auto;html=1;exitX=0.5;exitY=1;exitDx=0;exitDy=0;entryX=0.5;entryY=0;entryDx=0;entryDy=0;fontSize=12;startSize=8;endSize=8;" edge="1" parent="1" source="zY4RZjGk8QixvLDHZW2z-4" target="zY4RZjGk8QixvLDHZW2z-6">
          <mxGeometry relative="1" as="geometry" />
        </mxCell>
        <mxCell id="zY4RZjGk8QixvLDHZW2z-4" value="Setup" style="rounded=1;whiteSpace=wrap;html=1;" vertex="1" parent="1">
          <mxGeometry x="160" y="40" width="120" height="40" as="geometry" />
        </mxCell>
        <mxCell id="zY4RZjGk8QixvLDHZW2z-5" style="edgeStyle=none;curved=1;rounded=0;orthogonalLoop=1;jettySize=auto;html=1;exitX=0.5;exitY=1;exitDx=0;exitDy=0;entryX=0.5;entryY=0;entryDx=0;entryDy=0;fontSize=12;startSize=8;endSize=8;" edge="1" parent="1" source="zY4RZjGk8QixvLDHZW2z-6" target="zY4RZjGk8QixvLDHZW2z-9">
          <mxGeometry relative="1" as="geometry" />
        </mxCell>
        <mxCell id="zY4RZjGk8QixvLDHZW2z-6" value="Starting Screen" style="rounded=1;whiteSpace=wrap;html=1;" vertex="1" parent="1">
          <mxGeometry x="160" y="120" width="120" height="40" as="geometry" />
        </mxCell>
        <mxCell id="zY4RZjGk8QixvLDHZW2z-7" style="edgeStyle=none;curved=1;rounded=0;orthogonalLoop=1;jettySize=auto;html=1;exitX=1;exitY=0.5;exitDx=0;exitDy=0;entryX=1;entryY=0.5;entryDx=0;entryDy=0;fontSize=12;startSize=8;endSize=8;" edge="1" parent="1" source="zY4RZjGk8QixvLDHZW2z-9" target="zY4RZjGk8QixvLDHZW2z-6">
          <mxGeometry relative="1" as="geometry">
            <mxPoint x="340" y="250" as="targetPoint" />
            <Array as="points">
              <mxPoint x="470" y="240" />
            </Array>
          </mxGeometry>
        </mxCell>
        <mxCell id="zY4RZjGk8QixvLDHZW2z-8" style="edgeStyle=none;curved=1;rounded=0;orthogonalLoop=1;jettySize=auto;html=1;exitX=0;exitY=0.5;exitDx=0;exitDy=0;entryX=1;entryY=0.5;entryDx=0;entryDy=0;fontSize=12;startSize=8;endSize=8;" edge="1" parent="1" source="zY4RZjGk8QixvLDHZW2z-9" target="zY4RZjGk8QixvLDHZW2z-13">
          <mxGeometry relative="1" as="geometry" />
        </mxCell>
        <mxCell id="zY4RZjGk8QixvLDHZW2z-9" value="Ger채usch geh철rt?" style="rhombus;whiteSpace=wrap;html=1;" vertex="1" parent="1">
          <mxGeometry x="170" y="200" width="100" height="100" as="geometry" />
        </mxCell>
        <mxCell id="zY4RZjGk8QixvLDHZW2z-10" value="Ja" style="text;html=1;align=center;verticalAlign=middle;resizable=0;points=[];autosize=1;strokeColor=none;fillColor=none;fontSize=16;" vertex="1" parent="1">
          <mxGeometry x="120" y="211" width="40" height="30" as="geometry" />
        </mxCell>
        <mxCell id="zY4RZjGk8QixvLDHZW2z-11" value="Nein" style="text;html=1;align=center;verticalAlign=middle;resizable=0;points=[];autosize=1;strokeColor=none;fillColor=none;fontSize=16;" vertex="1" parent="1">
          <mxGeometry x="280" y="211" width="60" height="30" as="geometry" />
        </mxCell>
        <mxCell id="zY4RZjGk8QixvLDHZW2z-12" style="edgeStyle=none;curved=1;rounded=0;orthogonalLoop=1;jettySize=auto;html=1;exitX=0.5;exitY=1;exitDx=0;exitDy=0;entryX=0.5;entryY=0;entryDx=0;entryDy=0;fontSize=12;startSize=8;endSize=8;" edge="1" parent="1" source="zY4RZjGk8QixvLDHZW2z-13" target="zY4RZjGk8QixvLDHZW2z-15">
          <mxGeometry relative="1" as="geometry" />
        </mxCell>
        <mxCell id="zY4RZjGk8QixvLDHZW2z-13" value="Spiel Starten" style="rounded=1;whiteSpace=wrap;html=1;" vertex="1" parent="1">
          <mxGeometry x="-10" y="230" width="120" height="40" as="geometry" />
        </mxCell>
        <mxCell id="zY4RZjGk8QixvLDHZW2z-14" style="edgeStyle=none;curved=1;rounded=0;orthogonalLoop=1;jettySize=auto;html=1;exitX=0.5;exitY=1;exitDx=0;exitDy=0;entryX=0.5;entryY=0;entryDx=0;entryDy=0;fontSize=12;startSize=8;endSize=8;" edge="1" parent="1" source="zY4RZjGk8QixvLDHZW2z-15" target="zY4RZjGk8QixvLDHZW2z-18">
          <mxGeometry relative="1" as="geometry" />
        </mxCell>
        <mxCell id="zY4RZjGk8QixvLDHZW2z-15" value="DrawArena" style="rounded=1;whiteSpace=wrap;html=1;" vertex="1" parent="1">
          <mxGeometry x="-10" y="310" width="120" height="40" as="geometry" />
        </mxCell>
        <mxCell id="zY4RZjGk8QixvLDHZW2z-16" style="edgeStyle=none;curved=1;rounded=0;orthogonalLoop=1;jettySize=auto;html=1;exitX=0;exitY=0.5;exitDx=0;exitDy=0;entryX=1;entryY=0.5;entryDx=0;entryDy=0;fontSize=12;startSize=8;endSize=8;" edge="1" parent="1" source="zY4RZjGk8QixvLDHZW2z-18" target="zY4RZjGk8QixvLDHZW2z-22">
          <mxGeometry relative="1" as="geometry" />
        </mxCell>
        <mxCell id="zY4RZjGk8QixvLDHZW2z-17" style="edgeStyle=none;curved=1;rounded=0;orthogonalLoop=1;jettySize=auto;html=1;exitX=1;exitY=0.5;exitDx=0;exitDy=0;entryX=0;entryY=0.5;entryDx=0;entryDy=0;fontSize=12;startSize=8;endSize=8;" edge="1" parent="1" source="zY4RZjGk8QixvLDHZW2z-18" target="zY4RZjGk8QixvLDHZW2z-24">
          <mxGeometry relative="1" as="geometry" />
        </mxCell>
        <mxCell id="zY4RZjGk8QixvLDHZW2z-18" value="Is Player1 Turn?" style="rhombus;whiteSpace=wrap;html=1;" vertex="1" parent="1">
          <mxGeometry x="-5" y="390" width="110" height="110" as="geometry" />
        </mxCell>
        <mxCell id="zY4RZjGk8QixvLDHZW2z-19" value="Ja" style="text;html=1;align=center;verticalAlign=middle;resizable=0;points=[];autosize=1;strokeColor=none;fillColor=none;fontSize=16;" vertex="1" parent="1">
          <mxGeometry x="-70" y="400" width="40" height="30" as="geometry" />
        </mxCell>
        <mxCell id="zY4RZjGk8QixvLDHZW2z-20" value="Nein" style="text;html=1;align=center;verticalAlign=middle;resizable=0;points=[];autosize=1;strokeColor=none;fillColor=none;fontSize=16;" vertex="1" parent="1">
          <mxGeometry x="110" y="400" width="60" height="30" as="geometry" />
        </mxCell>
        <mxCell id="zY4RZjGk8QixvLDHZW2z-21" style="edgeStyle=none;curved=1;rounded=0;orthogonalLoop=1;jettySize=auto;html=1;exitX=0.5;exitY=1;exitDx=0;exitDy=0;entryX=0.5;entryY=0;entryDx=0;entryDy=0;fontSize=12;startSize=8;endSize=8;" edge="1" parent="1" source="zY4RZjGk8QixvLDHZW2z-22" target="zY4RZjGk8QixvLDHZW2z-26">
          <mxGeometry relative="1" as="geometry" />
        </mxCell>
        <mxCell id="zY4RZjGk8QixvLDHZW2z-22" value="MoveP1" style="rounded=1;whiteSpace=wrap;html=1;" vertex="1" parent="1">
          <mxGeometry x="-220" y="425" width="120" height="40" as="geometry" />
        </mxCell>
        <mxCell id="zY4RZjGk8QixvLDHZW2z-23" style="edgeStyle=none;curved=1;rounded=0;orthogonalLoop=1;jettySize=auto;html=1;exitX=0.5;exitY=1;exitDx=0;exitDy=0;entryX=0.5;entryY=0;entryDx=0;entryDy=0;fontSize=12;startSize=8;endSize=8;" edge="1" parent="1" source="zY4RZjGk8QixvLDHZW2z-24" target="zY4RZjGk8QixvLDHZW2z-28">
          <mxGeometry relative="1" as="geometry" />
        </mxCell>
        <mxCell id="zY4RZjGk8QixvLDHZW2z-24" value="MoveP2" style="rounded=1;whiteSpace=wrap;html=1;" vertex="1" parent="1">
          <mxGeometry x="180" y="425" width="120" height="40" as="geometry" />
        </mxCell>
        <mxCell id="zY4RZjGk8QixvLDHZW2z-25" style="edgeStyle=none;curved=1;rounded=0;orthogonalLoop=1;jettySize=auto;html=1;exitX=0.5;exitY=1;exitDx=0;exitDy=0;entryX=0.5;entryY=0;entryDx=0;entryDy=0;fontSize=12;startSize=8;endSize=8;" edge="1" parent="1" source="zY4RZjGk8QixvLDHZW2z-26" target="zY4RZjGk8QixvLDHZW2z-30">
          <mxGeometry relative="1" as="geometry" />
        </mxCell>
        <mxCell id="zY4RZjGk8QixvLDHZW2z-26" value="WaitForNoise" style="rounded=1;whiteSpace=wrap;html=1;" vertex="1" parent="1">
          <mxGeometry x="-220" y="500" width="120" height="40" as="geometry" />
        </mxCell>
        <mxCell id="zY4RZjGk8QixvLDHZW2z-27" style="edgeStyle=none;curved=1;rounded=0;orthogonalLoop=1;jettySize=auto;html=1;exitX=0.5;exitY=1;exitDx=0;exitDy=0;entryX=0.5;entryY=0;entryDx=0;entryDy=0;fontSize=12;startSize=8;endSize=8;" edge="1" parent="1" source="zY4RZjGk8QixvLDHZW2z-28" target="zY4RZjGk8QixvLDHZW2z-31">
          <mxGeometry relative="1" as="geometry" />
        </mxCell>
        <mxCell id="zY4RZjGk8QixvLDHZW2z-28" value="WaitForNoise" style="rounded=1;whiteSpace=wrap;html=1;" vertex="1" parent="1">
          <mxGeometry x="180" y="500" width="120" height="40" as="geometry" />
        </mxCell>
        <mxCell id="HU0jV3VsLcfE322JNzbO-13" style="edgeStyle=none;curved=1;rounded=0;orthogonalLoop=1;jettySize=auto;html=1;exitX=0.5;exitY=1;exitDx=0;exitDy=0;entryX=0.5;entryY=0;entryDx=0;entryDy=0;fontSize=12;startSize=8;endSize=8;" edge="1" parent="1" source="zY4RZjGk8QixvLDHZW2z-30" target="HU0jV3VsLcfE322JNzbO-2">
          <mxGeometry relative="1" as="geometry" />
        </mxCell>
        <mxCell id="zY4RZjGk8QixvLDHZW2z-30" value="DrawP1" style="rounded=1;whiteSpace=wrap;html=1;" vertex="1" parent="1">
          <mxGeometry x="-220" y="580" width="120" height="40" as="geometry" />
        </mxCell>
        <mxCell id="HU0jV3VsLcfE322JNzbO-14" style="edgeStyle=none;curved=1;rounded=0;orthogonalLoop=1;jettySize=auto;html=1;exitX=0.5;exitY=1;exitDx=0;exitDy=0;entryX=0.5;entryY=0;entryDx=0;entryDy=0;fontSize=12;startSize=8;endSize=8;" edge="1" parent="1" source="zY4RZjGk8QixvLDHZW2z-31" target="HU0jV3VsLcfE322JNzbO-4">
          <mxGeometry relative="1" as="geometry" />
        </mxCell>
        <mxCell id="zY4RZjGk8QixvLDHZW2z-31" value="&lt;div&gt;DrawP2&lt;/div&gt;" style="rounded=1;whiteSpace=wrap;html=1;" vertex="1" parent="1">
          <mxGeometry x="180" y="580" width="120" height="40" as="geometry" />
        </mxCell>
        <mxCell id="zY4RZjGk8QixvLDHZW2z-34" style="edgeStyle=none;curved=1;rounded=0;orthogonalLoop=1;jettySize=auto;html=1;exitX=0.5;exitY=1;exitDx=0;exitDy=0;entryX=0.5;entryY=0;entryDx=0;entryDy=0;fontSize=12;startSize=8;endSize=8;" edge="1" parent="1" source="zY4RZjGk8QixvLDHZW2z-35" target="zY4RZjGk8QixvLDHZW2z-18">
          <mxGeometry relative="1" as="geometry">
            <Array as="points">
              <mxPoint x="-290" y="850" />
              <mxPoint x="-330" y="260" />
            </Array>
          </mxGeometry>
        </mxCell>
        <mxCell id="zY4RZjGk8QixvLDHZW2z-35" value="ChangeTurn" style="rounded=1;whiteSpace=wrap;html=1;" vertex="1" parent="1">
          <mxGeometry x="-220" y="850" width="120" height="40" as="geometry" />
        </mxCell>
        <mxCell id="zY4RZjGk8QixvLDHZW2z-39" style="edgeStyle=none;curved=1;rounded=0;orthogonalLoop=1;jettySize=auto;html=1;exitX=0.5;exitY=1;exitDx=0;exitDy=0;entryX=0.5;entryY=0;entryDx=0;entryDy=0;fontSize=12;startSize=8;endSize=8;" edge="1" parent="1" source="zY4RZjGk8QixvLDHZW2z-40" target="zY4RZjGk8QixvLDHZW2z-18">
          <mxGeometry relative="1" as="geometry">
            <Array as="points">
              <mxPoint x="340" y="860" />
              <mxPoint x="490" y="270" />
            </Array>
          </mxGeometry>
        </mxCell>
        <mxCell id="zY4RZjGk8QixvLDHZW2z-40" value="ChangeTurn" style="rounded=1;whiteSpace=wrap;html=1;" vertex="1" parent="1">
          <mxGeometry x="180" y="850" width="120" height="40" as="geometry" />
        </mxCell>
        <mxCell id="HU0jV3VsLcfE322JNzbO-1" style="edgeStyle=none;curved=1;rounded=0;orthogonalLoop=1;jettySize=auto;html=1;exitX=1;exitY=0.5;exitDx=0;exitDy=0;entryX=0.5;entryY=0;entryDx=0;entryDy=0;fontSize=12;startSize=8;endSize=8;" edge="1" parent="1" source="HU0jV3VsLcfE322JNzbO-2" target="HU0jV3VsLcfE322JNzbO-9">
          <mxGeometry relative="1" as="geometry">
            <Array as="points">
              <mxPoint x="-10" y="650" />
            </Array>
          </mxGeometry>
        </mxCell>
        <mxCell id="HU0jV3VsLcfE322JNzbO-16" style="edgeStyle=none;curved=1;rounded=0;orthogonalLoop=1;jettySize=auto;html=1;exitX=0;exitY=0.5;exitDx=0;exitDy=0;entryX=0.5;entryY=0;entryDx=0;entryDy=0;fontSize=12;startSize=8;endSize=8;" edge="1" parent="1" source="HU0jV3VsLcfE322JNzbO-2" target="zY4RZjGk8QixvLDHZW2z-35">
          <mxGeometry relative="1" as="geometry" />
        </mxCell>
        <mxCell id="HU0jV3VsLcfE322JNzbO-2" value="Gewonnen?" style="rhombus;whiteSpace=wrap;html=1;" vertex="1" parent="1">
          <mxGeometry x="-200" y="650" width="80" height="80" as="geometry" />
        </mxCell>
        <mxCell id="HU0jV3VsLcfE322JNzbO-3" style="edgeStyle=none;curved=1;rounded=0;orthogonalLoop=1;jettySize=auto;html=1;exitX=0;exitY=0.5;exitDx=0;exitDy=0;entryX=0.5;entryY=0;entryDx=0;entryDy=0;fontSize=12;startSize=8;endSize=8;" edge="1" parent="1" source="HU0jV3VsLcfE322JNzbO-4" target="HU0jV3VsLcfE322JNzbO-9">
          <mxGeometry relative="1" as="geometry">
            <Array as="points">
              <mxPoint x="80" y="650" />
            </Array>
          </mxGeometry>
        </mxCell>
        <mxCell id="HU0jV3VsLcfE322JNzbO-15" style="edgeStyle=none;curved=1;rounded=0;orthogonalLoop=1;jettySize=auto;html=1;exitX=1;exitY=0.5;exitDx=0;exitDy=0;entryX=0.5;entryY=0;entryDx=0;entryDy=0;fontSize=12;startSize=8;endSize=8;" edge="1" parent="1" source="HU0jV3VsLcfE322JNzbO-4" target="zY4RZjGk8QixvLDHZW2z-40">
          <mxGeometry relative="1" as="geometry" />
        </mxCell>
        <mxCell id="HU0jV3VsLcfE322JNzbO-4" value="Gewonnen?" style="rhombus;whiteSpace=wrap;html=1;" vertex="1" parent="1">
          <mxGeometry x="200" y="650" width="80" height="80" as="geometry" />
        </mxCell>
        <mxCell id="HU0jV3VsLcfE322JNzbO-5" value="&lt;div&gt;Nein&lt;/div&gt;" style="text;html=1;align=center;verticalAlign=middle;resizable=0;points=[];autosize=1;strokeColor=none;fillColor=none;fontSize=16;" vertex="1" parent="1">
          <mxGeometry x="-250" y="641" width="60" height="30" as="geometry" />
        </mxCell>
        <mxCell id="HU0jV3VsLcfE322JNzbO-6" value="Ja" style="text;html=1;align=center;verticalAlign=middle;resizable=0;points=[];autosize=1;strokeColor=none;fillColor=none;fontSize=16;" vertex="1" parent="1">
          <mxGeometry x="-136" y="641" width="40" height="30" as="geometry" />
        </mxCell>
        <mxCell id="HU0jV3VsLcfE322JNzbO-7" value="Ja" style="text;html=1;align=center;verticalAlign=middle;resizable=0;points=[];autosize=1;strokeColor=none;fillColor=none;fontSize=16;" vertex="1" parent="1">
          <mxGeometry x="160" y="650" width="40" height="30" as="geometry" />
        </mxCell>
        <mxCell id="HU0jV3VsLcfE322JNzbO-8" value="&lt;div&gt;Nein&lt;/div&gt;" style="text;html=1;align=center;verticalAlign=middle;resizable=0;points=[];autosize=1;strokeColor=none;fillColor=none;fontSize=16;" vertex="1" parent="1">
          <mxGeometry x="270" y="650" width="60" height="30" as="geometry" />
        </mxCell>
        <mxCell id="HU0jV3VsLcfE322JNzbO-12" style="edgeStyle=none;curved=1;rounded=0;orthogonalLoop=1;jettySize=auto;html=1;exitX=0.5;exitY=1;exitDx=0;exitDy=0;entryX=0.5;entryY=0;entryDx=0;entryDy=0;fontSize=12;startSize=8;endSize=8;" edge="1" parent="1" source="HU0jV3VsLcfE322JNzbO-9" target="HU0jV3VsLcfE322JNzbO-11">
          <mxGeometry relative="1" as="geometry" />
        </mxCell>
        <mxCell id="HU0jV3VsLcfE322JNzbO-9" value="StartEnd" style="rounded=1;whiteSpace=wrap;html=1;" vertex="1" parent="1">
          <mxGeometry x="-30" y="720" width="120" height="40" as="geometry" />
        </mxCell>
        <mxCell id="HU0jV3VsLcfE322JNzbO-10" style="edgeStyle=none;curved=1;rounded=0;orthogonalLoop=1;jettySize=auto;html=1;exitX=0.5;exitY=1;exitDx=0;exitDy=0;entryX=1;entryY=0.5;entryDx=0;entryDy=0;fontSize=12;startSize=8;endSize=8;" edge="1" parent="1" source="HU0jV3VsLcfE322JNzbO-11">
          <mxGeometry relative="1" as="geometry">
            <mxPoint x="280" y="60" as="targetPoint" />
            <Array as="points">
              <mxPoint x="470" y="1240" />
              <mxPoint x="590" y="-80" />
            </Array>
          </mxGeometry>
        </mxCell>
        <mxCell id="HU0jV3VsLcfE322JNzbO-11" value="WaitForNoise" style="rounded=1;whiteSpace=wrap;html=1;" vertex="1" parent="1">
          <mxGeometry x="-30" y="800" width="120" height="40" as="geometry" />
        </mxCell>
      </root>
    </mxGraphModel>
  </diagram>
  <diagram id="aUAZy0LN8YWXbk1ac-DS" name="Dino Spiel">
    <mxGraphModel dx="2080" dy="1345" grid="1" gridSize="10" guides="1" tooltips="1" connect="1" arrows="1" fold="1" page="0" pageScale="1" pageWidth="827" pageHeight="1169" math="0" shadow="0">
      <root>
        <mxCell id="0" />
        <mxCell id="1" parent="0" />
        <mxCell id="S7o9uQws9hq_zsY-Ko6S-1" style="edgeStyle=none;curved=1;rounded=0;orthogonalLoop=1;jettySize=auto;html=1;exitX=0.5;exitY=1;exitDx=0;exitDy=0;entryX=0.5;entryY=0;entryDx=0;entryDy=0;fontSize=12;startSize=8;endSize=8;" edge="1" parent="1" source="S7o9uQws9hq_zsY-Ko6S-2" target="S7o9uQws9hq_zsY-Ko6S-4">
          <mxGeometry relative="1" as="geometry" />
        </mxCell>
        <mxCell id="S7o9uQws9hq_zsY-Ko6S-2" value="Programm ausgew채hlt" style="rounded=1;whiteSpace=wrap;html=1;" vertex="1" parent="1">
          <mxGeometry x="160" y="-40" width="120" height="40" as="geometry" />
        </mxCell>
        <mxCell id="S7o9uQws9hq_zsY-Ko6S-3" style="edgeStyle=none;curved=1;rounded=0;orthogonalLoop=1;jettySize=auto;html=1;exitX=0.5;exitY=1;exitDx=0;exitDy=0;entryX=0.5;entryY=0;entryDx=0;entryDy=0;fontSize=12;startSize=8;endSize=8;" edge="1" parent="1" source="S7o9uQws9hq_zsY-Ko6S-4" target="S7o9uQws9hq_zsY-Ko6S-6">
          <mxGeometry relative="1" as="geometry" />
        </mxCell>
        <mxCell id="S7o9uQws9hq_zsY-Ko6S-4" value="Setup" style="rounded=1;whiteSpace=wrap;html=1;" vertex="1" parent="1">
          <mxGeometry x="160" y="40" width="120" height="40" as="geometry" />
        </mxCell>
        <mxCell id="S7o9uQws9hq_zsY-Ko6S-5" style="edgeStyle=none;curved=1;rounded=0;orthogonalLoop=1;jettySize=auto;html=1;exitX=0.5;exitY=1;exitDx=0;exitDy=0;entryX=0.5;entryY=0;entryDx=0;entryDy=0;fontSize=12;startSize=8;endSize=8;" edge="1" parent="1" source="S7o9uQws9hq_zsY-Ko6S-6" target="S7o9uQws9hq_zsY-Ko6S-9">
          <mxGeometry relative="1" as="geometry" />
        </mxCell>
        <mxCell id="S7o9uQws9hq_zsY-Ko6S-6" value="Starting Screen" style="rounded=1;whiteSpace=wrap;html=1;" vertex="1" parent="1">
          <mxGeometry x="160" y="120" width="120" height="40" as="geometry" />
        </mxCell>
        <mxCell id="S7o9uQws9hq_zsY-Ko6S-7" style="edgeStyle=none;curved=1;rounded=0;orthogonalLoop=1;jettySize=auto;html=1;exitX=1;exitY=0.5;exitDx=0;exitDy=0;entryX=1;entryY=0.5;entryDx=0;entryDy=0;fontSize=12;startSize=8;endSize=8;" edge="1" parent="1" source="S7o9uQws9hq_zsY-Ko6S-9" target="S7o9uQws9hq_zsY-Ko6S-6">
          <mxGeometry relative="1" as="geometry">
            <mxPoint x="340" y="250" as="targetPoint" />
            <Array as="points">
              <mxPoint x="470" y="240" />
            </Array>
          </mxGeometry>
        </mxCell>
        <mxCell id="S7o9uQws9hq_zsY-Ko6S-8" style="edgeStyle=none;curved=1;rounded=0;orthogonalLoop=1;jettySize=auto;html=1;exitX=0;exitY=0.5;exitDx=0;exitDy=0;entryX=1;entryY=0.5;entryDx=0;entryDy=0;fontSize=12;startSize=8;endSize=8;" edge="1" parent="1" source="S7o9uQws9hq_zsY-Ko6S-9" target="S7o9uQws9hq_zsY-Ko6S-13">
          <mxGeometry relative="1" as="geometry" />
        </mxCell>
        <mxCell id="S7o9uQws9hq_zsY-Ko6S-9" value="Ger채usch geh철rt?" style="rhombus;whiteSpace=wrap;html=1;" vertex="1" parent="1">
          <mxGeometry x="170" y="200" width="100" height="100" as="geometry" />
        </mxCell>
        <mxCell id="S7o9uQws9hq_zsY-Ko6S-10" value="Ja" style="text;html=1;align=center;verticalAlign=middle;resizable=0;points=[];autosize=1;strokeColor=none;fillColor=none;fontSize=16;" vertex="1" parent="1">
          <mxGeometry x="120" y="211" width="40" height="30" as="geometry" />
        </mxCell>
        <mxCell id="S7o9uQws9hq_zsY-Ko6S-11" value="Nein" style="text;html=1;align=center;verticalAlign=middle;resizable=0;points=[];autosize=1;strokeColor=none;fillColor=none;fontSize=16;" vertex="1" parent="1">
          <mxGeometry x="280" y="211" width="60" height="30" as="geometry" />
        </mxCell>
        <mxCell id="S7o9uQws9hq_zsY-Ko6S-12" style="edgeStyle=none;curved=1;rounded=0;orthogonalLoop=1;jettySize=auto;html=1;exitX=0.5;exitY=1;exitDx=0;exitDy=0;entryX=0.5;entryY=0;entryDx=0;entryDy=0;fontSize=12;startSize=8;endSize=8;" edge="1" parent="1" source="S7o9uQws9hq_zsY-Ko6S-13" target="S7o9uQws9hq_zsY-Ko6S-15">
          <mxGeometry relative="1" as="geometry" />
        </mxCell>
        <mxCell id="S7o9uQws9hq_zsY-Ko6S-57" style="edgeStyle=none;curved=1;rounded=0;orthogonalLoop=1;jettySize=auto;html=1;exitX=0;exitY=0.5;exitDx=0;exitDy=0;entryX=0.5;entryY=0;entryDx=0;entryDy=0;fontSize=12;startSize=8;endSize=8;" edge="1" parent="1" source="S7o9uQws9hq_zsY-Ko6S-13" target="S7o9uQws9hq_zsY-Ko6S-56">
          <mxGeometry relative="1" as="geometry">
            <Array as="points">
              <mxPoint x="-140" y="220" />
            </Array>
          </mxGeometry>
        </mxCell>
        <mxCell id="S7o9uQws9hq_zsY-Ko6S-13" value="Spiel Starten" style="rounded=1;whiteSpace=wrap;html=1;" vertex="1" parent="1">
          <mxGeometry x="-10" y="230" width="120" height="40" as="geometry" />
        </mxCell>
        <mxCell id="S7o9uQws9hq_zsY-Ko6S-49" style="edgeStyle=none;curved=1;rounded=0;orthogonalLoop=1;jettySize=auto;html=1;exitX=0.5;exitY=1;exitDx=0;exitDy=0;entryX=0.5;entryY=0;entryDx=0;entryDy=0;fontSize=12;startSize=8;endSize=8;" edge="1" parent="1" source="S7o9uQws9hq_zsY-Ko6S-15" target="S7o9uQws9hq_zsY-Ko6S-43">
          <mxGeometry relative="1" as="geometry" />
        </mxCell>
        <mxCell id="S7o9uQws9hq_zsY-Ko6S-15" value="DrawGround" style="rounded=1;whiteSpace=wrap;html=1;" vertex="1" parent="1">
          <mxGeometry x="-10" y="310" width="120" height="40" as="geometry" />
        </mxCell>
        <mxCell id="S7o9uQws9hq_zsY-Ko6S-54" style="edgeStyle=none;curved=1;rounded=0;orthogonalLoop=1;jettySize=auto;html=1;exitX=0.5;exitY=1;exitDx=0;exitDy=0;entryX=0.5;entryY=0;entryDx=0;entryDy=0;fontSize=12;startSize=8;endSize=8;" edge="1" parent="1" source="S7o9uQws9hq_zsY-Ko6S-41" target="S7o9uQws9hq_zsY-Ko6S-53">
          <mxGeometry relative="1" as="geometry" />
        </mxCell>
        <mxCell id="S7o9uQws9hq_zsY-Ko6S-41" value="DrawDino" style="rounded=1;whiteSpace=wrap;html=1;" vertex="1" parent="1">
          <mxGeometry x="-10" y="550" width="120" height="40" as="geometry" />
        </mxCell>
        <mxCell id="S7o9uQws9hq_zsY-Ko6S-51" style="edgeStyle=none;curved=1;rounded=0;orthogonalLoop=1;jettySize=auto;html=1;exitX=0.5;exitY=1;exitDx=0;exitDy=0;entryX=0.5;entryY=0;entryDx=0;entryDy=0;fontSize=12;startSize=8;endSize=8;" edge="1" parent="1" source="S7o9uQws9hq_zsY-Ko6S-43" target="S7o9uQws9hq_zsY-Ko6S-46">
          <mxGeometry relative="1" as="geometry" />
        </mxCell>
        <mxCell id="S7o9uQws9hq_zsY-Ko6S-43" value="CreateObstacle" style="rounded=1;whiteSpace=wrap;html=1;" vertex="1" parent="1">
          <mxGeometry x="-10" y="390" width="120" height="40" as="geometry" />
        </mxCell>
        <mxCell id="S7o9uQws9hq_zsY-Ko6S-52" style="edgeStyle=none;curved=1;rounded=0;orthogonalLoop=1;jettySize=auto;html=1;exitX=0.5;exitY=1;exitDx=0;exitDy=0;entryX=0.5;entryY=0;entryDx=0;entryDy=0;fontSize=12;startSize=8;endSize=8;" edge="1" parent="1" source="S7o9uQws9hq_zsY-Ko6S-46" target="S7o9uQws9hq_zsY-Ko6S-41">
          <mxGeometry relative="1" as="geometry" />
        </mxCell>
        <mxCell id="S7o9uQws9hq_zsY-Ko6S-46" value="DrawObstacle" style="rounded=1;whiteSpace=wrap;html=1;" vertex="1" parent="1">
          <mxGeometry x="-10" y="470" width="120" height="40" as="geometry" />
        </mxCell>
        <mxCell id="N1w8LSBx2HUUZOke14mw-3" style="edgeStyle=none;curved=1;rounded=0;orthogonalLoop=1;jettySize=auto;html=1;exitX=0.5;exitY=1;exitDx=0;exitDy=0;entryX=0.5;entryY=0;entryDx=0;entryDy=0;fontSize=12;startSize=8;endSize=8;" edge="1" parent="1" source="S7o9uQws9hq_zsY-Ko6S-53" target="S7o9uQws9hq_zsY-Ko6S-66">
          <mxGeometry relative="1" as="geometry" />
        </mxCell>
        <mxCell id="S7o9uQws9hq_zsY-Ko6S-53" value="Move Obstacle" style="rounded=1;whiteSpace=wrap;html=1;" vertex="1" parent="1">
          <mxGeometry x="-10" y="630" width="120" height="40" as="geometry" />
        </mxCell>
        <mxCell id="S7o9uQws9hq_zsY-Ko6S-60" style="edgeStyle=none;curved=1;rounded=0;orthogonalLoop=1;jettySize=auto;html=1;exitX=0;exitY=0.5;exitDx=0;exitDy=0;entryX=1;entryY=0.5;entryDx=0;entryDy=0;fontSize=12;startSize=8;endSize=8;" edge="1" parent="1" source="S7o9uQws9hq_zsY-Ko6S-56" target="S7o9uQws9hq_zsY-Ko6S-59">
          <mxGeometry relative="1" as="geometry" />
        </mxCell>
        <mxCell id="S7o9uQws9hq_zsY-Ko6S-61" style="edgeStyle=none;curved=1;rounded=0;orthogonalLoop=1;jettySize=auto;html=1;exitX=0.5;exitY=1;exitDx=0;exitDy=0;fontSize=12;startSize=8;endSize=8;entryX=0.5;entryY=0;entryDx=0;entryDy=0;" edge="1" parent="1" source="S7o9uQws9hq_zsY-Ko6S-56" target="S7o9uQws9hq_zsY-Ko6S-56">
          <mxGeometry relative="1" as="geometry">
            <mxPoint x="-90" y="450" as="targetPoint" />
            <Array as="points">
              <mxPoint x="60" y="345" />
            </Array>
          </mxGeometry>
        </mxCell>
        <mxCell id="S7o9uQws9hq_zsY-Ko6S-56" value="Ger채usch geh철rt?" style="rhombus;whiteSpace=wrap;html=1;" vertex="1" parent="1">
          <mxGeometry x="-210" y="290" width="110" height="110" as="geometry" />
        </mxCell>
        <mxCell id="N1w8LSBx2HUUZOke14mw-2" style="edgeStyle=none;curved=1;rounded=0;orthogonalLoop=1;jettySize=auto;html=1;exitX=0;exitY=0.5;exitDx=0;exitDy=0;entryX=0.5;entryY=0;entryDx=0;entryDy=0;fontSize=12;startSize=8;endSize=8;" edge="1" parent="1" source="S7o9uQws9hq_zsY-Ko6S-59" target="S7o9uQws9hq_zsY-Ko6S-56">
          <mxGeometry relative="1" as="geometry">
            <Array as="points">
              <mxPoint x="-420" y="240" />
            </Array>
          </mxGeometry>
        </mxCell>
        <mxCell id="S7o9uQws9hq_zsY-Ko6S-59" value="DinoJump" style="rounded=1;whiteSpace=wrap;html=1;" vertex="1" parent="1">
          <mxGeometry x="-380" y="325" width="120" height="40" as="geometry" />
        </mxCell>
        <mxCell id="S7o9uQws9hq_zsY-Ko6S-62" value="Ja" style="text;html=1;align=center;verticalAlign=middle;resizable=0;points=[];autosize=1;strokeColor=none;fillColor=none;fontSize=16;" vertex="1" parent="1">
          <mxGeometry x="-256" y="291" width="40" height="30" as="geometry" />
        </mxCell>
        <mxCell id="N1w8LSBx2HUUZOke14mw-1" style="edgeStyle=none;curved=1;rounded=0;orthogonalLoop=1;jettySize=auto;html=1;fontSize=12;startSize=8;endSize=8;" edge="1" parent="1" source="S7o9uQws9hq_zsY-Ko6S-63" target="S7o9uQws9hq_zsY-Ko6S-56">
          <mxGeometry relative="1" as="geometry" />
        </mxCell>
        <mxCell id="S7o9uQws9hq_zsY-Ko6S-63" value="Nein" style="text;html=1;align=center;verticalAlign=middle;resizable=0;points=[];autosize=1;strokeColor=none;fillColor=none;fontSize=16;" vertex="1" parent="1">
          <mxGeometry x="-186" y="411" width="60" height="30" as="geometry" />
        </mxCell>
        <mxCell id="N1w8LSBx2HUUZOke14mw-7" style="edgeStyle=none;curved=1;rounded=0;orthogonalLoop=1;jettySize=auto;html=1;exitX=1;exitY=0.5;exitDx=0;exitDy=0;entryX=1;entryY=0.5;entryDx=0;entryDy=0;fontSize=12;startSize=8;endSize=8;" edge="1" parent="1" source="S7o9uQws9hq_zsY-Ko6S-66" target="S7o9uQws9hq_zsY-Ko6S-43">
          <mxGeometry relative="1" as="geometry">
            <Array as="points">
              <mxPoint x="280" y="740" />
            </Array>
          </mxGeometry>
        </mxCell>
        <mxCell id="N1w8LSBx2HUUZOke14mw-9" style="edgeStyle=none;curved=1;rounded=0;orthogonalLoop=1;jettySize=auto;html=1;exitX=0;exitY=0.5;exitDx=0;exitDy=0;entryX=1;entryY=0.5;entryDx=0;entryDy=0;fontSize=12;startSize=8;endSize=8;" edge="1" parent="1" source="S7o9uQws9hq_zsY-Ko6S-66" target="N1w8LSBx2HUUZOke14mw-8">
          <mxGeometry relative="1" as="geometry" />
        </mxCell>
        <mxCell id="S7o9uQws9hq_zsY-Ko6S-66" value="Dino Ber체hrt kaktus?" style="rhombus;whiteSpace=wrap;html=1;" vertex="1" parent="1">
          <mxGeometry x="-5" y="700" width="110" height="110" as="geometry" />
        </mxCell>
        <mxCell id="N1w8LSBx2HUUZOke14mw-4" value="Ja" style="text;html=1;align=center;verticalAlign=middle;resizable=0;points=[];autosize=1;strokeColor=none;fillColor=none;fontSize=16;" vertex="1" parent="1">
          <mxGeometry x="-40" y="710" width="40" height="30" as="geometry" />
        </mxCell>
        <mxCell id="N1w8LSBx2HUUZOke14mw-6" value="Nein" style="text;html=1;align=center;verticalAlign=middle;resizable=0;points=[];autosize=1;strokeColor=none;fillColor=none;fontSize=16;" vertex="1" parent="1">
          <mxGeometry x="90" y="700" width="60" height="30" as="geometry" />
        </mxCell>
        <mxCell id="N1w8LSBx2HUUZOke14mw-11" style="edgeStyle=none;curved=1;rounded=0;orthogonalLoop=1;jettySize=auto;html=1;exitX=0.5;exitY=1;exitDx=0;exitDy=0;entryX=0.5;entryY=0;entryDx=0;entryDy=0;fontSize=12;startSize=8;endSize=8;" edge="1" parent="1" source="N1w8LSBx2HUUZOke14mw-8" target="N1w8LSBx2HUUZOke14mw-10">
          <mxGeometry relative="1" as="geometry" />
        </mxCell>
        <mxCell id="N1w8LSBx2HUUZOke14mw-8" value="StartEnd" style="rounded=1;whiteSpace=wrap;html=1;" vertex="1" parent="1">
          <mxGeometry x="-210" y="740" width="120" height="40" as="geometry" />
        </mxCell>
        <mxCell id="N1w8LSBx2HUUZOke14mw-13" style="edgeStyle=none;curved=1;rounded=0;orthogonalLoop=1;jettySize=auto;html=1;exitX=1;exitY=0.5;exitDx=0;exitDy=0;entryX=1;entryY=0.5;entryDx=0;entryDy=0;fontSize=12;startSize=8;endSize=8;" edge="1" parent="1" source="N1w8LSBx2HUUZOke14mw-10" target="S7o9uQws9hq_zsY-Ko6S-4">
          <mxGeometry relative="1" as="geometry">
            <Array as="points">
              <mxPoint x="810" y="740" />
            </Array>
          </mxGeometry>
        </mxCell>
        <mxCell id="N1w8LSBx2HUUZOke14mw-10" value="WaitForNoise" style="rounded=1;whiteSpace=wrap;html=1;" vertex="1" parent="1">
          <mxGeometry x="-210" y="820" width="120" height="40" as="geometry" />
        </mxCell>
      </root>
    </mxGraphModel>
  </diagram>
  <diagram id="uAjoyzSn3DXFqfWLuaWP" name="Uhr">
    <mxGraphModel dx="1428" dy="1203" grid="1" gridSize="10" guides="1" tooltips="1" connect="1" arrows="1" fold="1" page="0" pageScale="1" pageWidth="827" pageHeight="1169" math="0" shadow="0">
      <root>
        <mxCell id="0" />
        <mxCell id="1" parent="0" />
        <mxCell id="vazuQBnqrRdl5ZKVLlqc-1" style="edgeStyle=none;curved=1;rounded=0;orthogonalLoop=1;jettySize=auto;html=1;exitX=0.5;exitY=1;exitDx=0;exitDy=0;entryX=0.5;entryY=0;entryDx=0;entryDy=0;fontSize=12;startSize=8;endSize=8;" edge="1" parent="1" source="vazuQBnqrRdl5ZKVLlqc-2" target="vazuQBnqrRdl5ZKVLlqc-4">
          <mxGeometry relative="1" as="geometry" />
        </mxCell>
        <mxCell id="vazuQBnqrRdl5ZKVLlqc-2" value="Programm ausgew채hlt" style="rounded=1;whiteSpace=wrap;html=1;" vertex="1" parent="1">
          <mxGeometry x="160" y="-40" width="120" height="40" as="geometry" />
        </mxCell>
        <mxCell id="vazuQBnqrRdl5ZKVLlqc-43" style="edgeStyle=none;curved=1;rounded=0;orthogonalLoop=1;jettySize=auto;html=1;exitX=0.5;exitY=1;exitDx=0;exitDy=0;entryX=0.5;entryY=0;entryDx=0;entryDy=0;fontSize=12;startSize=8;endSize=8;" edge="1" parent="1" source="vazuQBnqrRdl5ZKVLlqc-4" target="vazuQBnqrRdl5ZKVLlqc-42">
          <mxGeometry relative="1" as="geometry" />
        </mxCell>
        <mxCell id="vazuQBnqrRdl5ZKVLlqc-4" value="Setup" style="rounded=1;whiteSpace=wrap;html=1;" vertex="1" parent="1">
          <mxGeometry x="160" y="40" width="120" height="40" as="geometry" />
        </mxCell>
        <mxCell id="vazuQBnqrRdl5ZKVLlqc-33" style="edgeStyle=none;curved=1;rounded=0;orthogonalLoop=1;jettySize=auto;html=1;exitX=1;exitY=0.5;exitDx=0;exitDy=0;entryX=1;entryY=0.5;entryDx=0;entryDy=0;fontSize=12;startSize=8;endSize=8;" edge="1" parent="1" source="vazuQBnqrRdl5ZKVLlqc-35">
          <mxGeometry relative="1" as="geometry">
            <Array as="points">
              <mxPoint x="280" y="740" />
            </Array>
            <mxPoint x="110" y="410" as="targetPoint" />
          </mxGeometry>
        </mxCell>
        <mxCell id="vazuQBnqrRdl5ZKVLlqc-45" style="edgeStyle=none;curved=1;rounded=0;orthogonalLoop=1;jettySize=auto;html=1;exitX=0.5;exitY=1;exitDx=0;exitDy=0;entryX=0.5;entryY=0;entryDx=0;entryDy=0;fontSize=12;startSize=8;endSize=8;" edge="1" parent="1" source="vazuQBnqrRdl5ZKVLlqc-42" target="vazuQBnqrRdl5ZKVLlqc-44">
          <mxGeometry relative="1" as="geometry" />
        </mxCell>
        <mxCell id="vazuQBnqrRdl5ZKVLlqc-42" value="GetTime" style="rounded=1;whiteSpace=wrap;html=1;" vertex="1" parent="1">
          <mxGeometry x="160" y="120" width="120" height="40" as="geometry" />
        </mxCell>
        <mxCell id="vazuQBnqrRdl5ZKVLlqc-47" style="edgeStyle=none;curved=1;rounded=0;orthogonalLoop=1;jettySize=auto;html=1;exitX=0.5;exitY=1;exitDx=0;exitDy=0;entryX=0.5;entryY=0;entryDx=0;entryDy=0;fontSize=12;startSize=8;endSize=8;" edge="1" parent="1" source="vazuQBnqrRdl5ZKVLlqc-44" target="vazuQBnqrRdl5ZKVLlqc-46">
          <mxGeometry relative="1" as="geometry" />
        </mxCell>
        <mxCell id="vazuQBnqrRdl5ZKVLlqc-44" value="ShowTime" style="rounded=1;whiteSpace=wrap;html=1;" vertex="1" parent="1">
          <mxGeometry x="160" y="200" width="120" height="40" as="geometry" />
        </mxCell>
        <mxCell id="vazuQBnqrRdl5ZKVLlqc-48" style="edgeStyle=none;curved=1;rounded=0;orthogonalLoop=1;jettySize=auto;html=1;exitX=1;exitY=0.5;exitDx=0;exitDy=0;entryX=1;entryY=0.5;entryDx=0;entryDy=0;fontSize=12;startSize=8;endSize=8;" edge="1" parent="1" source="vazuQBnqrRdl5ZKVLlqc-46" target="vazuQBnqrRdl5ZKVLlqc-42">
          <mxGeometry relative="1" as="geometry">
            <Array as="points">
              <mxPoint x="400" y="230" />
            </Array>
          </mxGeometry>
        </mxCell>
        <mxCell id="vazuQBnqrRdl5ZKVLlqc-46" value="Wait 1min" style="rounded=1;whiteSpace=wrap;html=1;" vertex="1" parent="1">
          <mxGeometry x="160" y="280" width="120" height="40" as="geometry" />
        </mxCell>
      </root>
    </mxGraphModel>
  </diagram>
  <diagram id="p7iHd82EY-Un2v_qkwU6" name="Verbinungs Programm">
    <mxGraphModel dx="1428" dy="803" grid="1" gridSize="10" guides="1" tooltips="1" connect="1" arrows="1" fold="1" page="0" pageScale="1" pageWidth="827" pageHeight="1169" math="0" shadow="0">
      <root>
        <mxCell id="0" />
        <mxCell id="1" parent="0" />
      </root>
    </mxGraphModel>
  </diagram>
</mxfile>
